<svg version="1.1" xmlns="http://www.w3.org/2000/svg" xmlns:xlink="http://www.w3.org/1999/xlink" viewBox="0,0,641,641">
	<g>
		<path d="M0,0M193,283 C171.66666667,289.66666667,150.66666667,298.66666667,130,310 C109.33333333,321.33333333,90.83333333,334.83333333,74.5,350.5 C58.16666667,366.16666667,45,384.16666667,35,404.5 C25,424.83333333,20,447,20,471 C20,501,27.5,526.16666667,42.5,546.5 C57.5,566.83333333,76.5,583.16666667,99.5,595.5 C122.5,607.83333333,147.83333333,616.5,175.5,621.5 C203.16666667,626.5,229.33333333,629,254,629 C278,629,302.83333333,625.83333333,328.5,619.5 C354.16666667,613.16666667,377.5,603.5,398.5,590.5 C419.5,577.5,436.83333333,560.83333333,450.5,540.5 C464.16666667,520.16666667,471,496.33333333,471,469 C471,442.33333333,466.16666667,418.83333333,456.5,398.5 C446.83333333,378.16666667,434,360.16666667,418,344.5 C402,328.83333333,383.66666667,315.33333333,363,304 C342.33333333,292.66666667,321,282.33333333,299,273 C315.66666667,267,332,259.33333333,348,250 C364,240.66666667,378.33333333,229.5,391,216.5 C403.66666667,203.5,413.83333333,189,421.5,173 C429.16666667,157,433,139.66666667,433,121 C433,95.66666667,426.83333333,74.66666667,414.5,58 C402.16666667,41.33333333,386.66666667,27.66666667,368,17 C349.33333333,6.33333333,328.66666667,-1.16666667,306,-5.5 C283.33333333,-9.83333333,261.66666667,-12,241,-12 C221.66666667,-12,201.16666667,-9.5,179.5,-4.5 C157.83333333,0.5,137.83333333,8.5,119.5,19.5 C101.16666667,30.5,86,44.16666667,74,60.5 C62,76.83333333,56,96.66666667,56,120 C56,140.66666667,60,159.33333333,68,176 C76,192.66666667,86.5,207.5,99.5,220.5 C112.5,233.5,127.16666667,245.16666667,143.5,255.5 C159.83333333,265.83333333,176.33333333,275,193,283Z M265,260 C246.33333333,252.66666667,227.83333333,245.5,209.5,238.5 C191.16666667,231.5,173.33333333,223.33333333,156,214 C136.66666667,204,119.33333333,191.33333333,104,176 C88.66666667,160.66666667,81,142,81,120 C81,102,85.5,86.5,94.5,73.5 C103.5,60.5,115,49.66666667,129,41 C143,32.33333333,158.66666667,25.83333333,176,21.5 C193.33333333,17.16666667,210.33333333,15,227,15 C245.66666667,15,264.33333333,17.16666667,283,21.5 C301.66666667,25.83333333,318.33333333,32.5,333,41.5 C347.66666667,50.5,359.5,62.16666667,368.5,76.5 C377.5,90.83333333,382,108,382,128 C382,144.66666667,378.83333333,159.83333333,372.5,173.5 C366.16666667,187.16666667,357.66666667,199.5,347,210.5 C336.33333333,221.5,323.83333333,231.16666667,309.5,239.5 C295.16666667,247.83333333,280.33333333,254.66666667,265,260Z M227,299 C250.33333333,310.33333333,274,320.83333333,298,330.5 C322,340.16666667,345.33333333,351.66666667,368,365 C389.33333333,377,407.5,391.16666667,422.5,407.5 C437.5,423.83333333,445,444.33333333,445,469 C445,493,439.16666667,513.16666667,427.5,529.5 C415.83333333,545.83333333,400.66666667,559.33333333,382,570 C363.33333333,580.66666667,342.66666667,588.33333333,320,593 C297.33333333,597.66666667,275.33333333,600,254,600 C232,600,210.66666667,597,190,591 C169.33333333,585,151.16666667,576.16666667,135.5,564.5 C119.83333333,552.83333333,107.16666667,538.33333333,97.5,521 C87.83333333,503.66666667,83,483.66666667,83,461 C83,441,87,422.33333333,95,405 C103,387.66666667,113.5,372.16666667,126.5,358.5 C139.5,344.83333333,154.83333333,333,172.5,323 C190.16666667,313,208.33333333,305,227,299Z "/>
	</g>
</svg>