<svg version="1.1" xmlns="http://www.w3.org/2000/svg" xmlns:xlink="http://www.w3.org/1999/xlink" viewBox="0,0,644,644">
	<g>
		<path d="M0,0M57,368 C57,368,53,372,53,372 C41,385.33333333,32.5,399.83333333,27.5,415.5 C22.5,431.16666667,20,447.66666667,20,465 C20,493.66666667,26,518.33333333,38,539 C50,559.66666667,65.66666667,576.66666667,85,590 C104.33333333,603.33333333,126.33333333,613.33333333,151,620 C175.66666667,626.66666667,200.33333333,630,225,630 C265,630,303.16666667,622.16666667,339.5,606.5 C375.83333333,590.83333333,404.66666667,565.66666667,426,531 C434.66666667,517.66666667,441.33333333,503.33333333,446,488 C450.66666667,472.66666667,453,457.33333333,453,442 C453,422,449.33333333,403.5,442,386.5 C434.66666667,369.5,424.66666667,354.5,412,341.5 C399.33333333,328.5,384.5,317.33333333,367.5,308 C350.5,298.66666667,332.66666667,292,314,288 C346,274.66666667,372.33333333,254.83333333,393,228.5 C413.66666667,202.16666667,424,171.66666667,424,137 C424,111,418.33333333,88.5,407,69.5 C395.66666667,50.5,380.83333333,34.83333333,362.5,22.5 C344.16666667,10.16666667,323.5,1,300.5,-5 C277.5,-11,254.33333333,-14,231,-14 C210.33333333,-14,189.5,-11.33333333,168.5,-6 C147.5,-0.66666667,128.66666667,7.66666667,112,19 C95.33333333,30.33333333,81.83333333,44.5,71.5,61.5 C61.16666667,78.5,56,99,56,123 C56,135.66666667,58,148,62,160 C66,172,72.33333333,182.66666667,81,192 C81,192,84,196,84,196 C84,196,134,148,134,148 C134,148,131,145,131,145 C119,133.66666667,113,119.33333333,113,102 C113,86.66666667,116.16666667,73.5,122.5,62.5 C128.83333333,51.5,137.16666667,42.16666667,147.5,34.5 C157.83333333,26.83333333,169.66666667,21.16666667,183,17.5 C196.33333333,13.83333333,210.33333333,12,225,12 C265.66666667,12,299,23.83333333,325,47.5 C351,71.16666667,364,102.66666667,364,142 C364,167.33333333,357.83333333,191,345.5,213 C333.16666667,235,315.33333333,252,292,264 C276,272.66666667,260.33333333,278,245,280 C229.66666667,282,213,283,195,283 C195,283,191,283,191,283 C191,283,191,309,191,309 C191,309,196,308,196,308 C200.66666667,307.33333333,205.33333333,307,210,307 C214.66666667,307,219.66666667,307,225,307 C248.33333333,307,270,310.33333333,290,317 C310,323.66666667,327.5,333.5,342.5,346.5 C357.5,359.5,369.16666667,375.16666667,377.5,393.5 C385.83333333,411.83333333,390,432.66666667,390,456 C390,478.66666667,385.83333333,499.16666667,377.5,517.5 C369.16666667,535.83333333,357.83333333,551.33333333,343.5,564 C329.16666667,576.66666667,312.16666667,586.5,292.5,593.5 C272.83333333,600.5,251.33333333,604,228,604 C207.33333333,604,188,601,170,595 C152,589,136.16666667,580.33333333,122.5,569 C108.83333333,557.66666667,98,543.83333333,90,527.5 C82,511.16666667,78,492.66666667,78,472 C78,462.66666667,79,453.16666667,81,443.5 C83,433.83333333,86.66666667,424.66666667,92,416 C92,416,93,414,93,414 C93,414,57,368,57,368Z "/>
	</g>
</svg>