<svg version="1.1" xmlns="http://www.w3.org/2000/svg" xmlns:xlink="http://www.w3.org/1999/xlink" viewBox="0,0,628,628">
	<g>
		<path d="M0,0M68,379 C68,379,65,382,65,382 C51,394,40,407.66666667,32,423 C24,438.33333333,20,455.33333333,20,474 C20,498,25.66666667,518.83333333,37,536.5 C48.33333333,554.16666667,63,568.83333333,81,580.5 C99,592.16666667,118.83333333,600.66666667,140.5,606 C162.16666667,611.33333333,183.33333333,614,204,614 C238,614,270.33333333,608.5,301,597.5 C331.66666667,586.5,358.33333333,571,381,551 C403.66666667,531,421.66666667,506.83333333,435,478.5 C448.33333333,450.16666667,455,419,455,385 C455,354.33333333,449.5,327.66666667,438.5,305 C427.5,282.33333333,412.5,263.33333333,393.5,248 C374.5,232.66666667,352.16666667,221.16666667,326.5,213.5 C300.83333333,205.83333333,273.33333333,202,244,202 C215.33333333,202,187.16666667,205.16666667,159.5,211.5 C131.83333333,217.83333333,105.33333333,226.66666667,80,238 C80,238,100,50,100,50 C125.33333333,54,150.66666667,56,176,56 C190,56,206.83333333,55.16666667,226.5,53.5 C246.16666667,51.83333333,266,49.33333333,286,46 C306,42.66666667,325.16666667,38.16666667,343.5,32.5 C361.83333333,26.83333333,377,19.66666667,389,11 C389,11,391,10,391,10 C391,10,391,-14,391,-14 C391,-14,385,-12,385,-12 C361,-4.66666667,336.16666667,0.66666667,310.5,4 C284.83333333,7.33333333,259.33333333,9,234,9 C212.66666667,9,191.83333333,7.83333333,171.5,5.5 C151.16666667,3.16666667,131,-1,111,-7 C108.33333333,-8.33333333,106,-9,106,-9 C102,-10.33333333,99.33333333,-11,98,-11 C98,-11,81,-11,81,-11 C81,-11,49,282,49,282 C49,282,56,278,56,278 C84,264,112.33333333,252.83333333,141,244.5 C169.66666667,236.16666667,199.66666667,232,231,232 C282.33333333,232,322.5,245,351.5,271 C380.5,297,395,335,395,385 C395,415,390.66666667,442.33333333,382,467 C373.33333333,491.66666667,360.83333333,513,344.5,531 C328.16666667,549,307.66666667,563,283,573 C258.33333333,583,230,588,198,588 C182.66666667,588,168.33333333,585.66666667,155,581 C141.66666667,576.33333333,130,569.5,120,560.5 C110,551.5,102,540.83333333,96,528.5 C90,516.16666667,87,502.66666667,87,488 C87,476.66666667,88.83333333,465.5,92.5,454.5 C96.16666667,443.5,101.33333333,433.33333333,108,424 C108,424,110,421,110,421 C110,421,68,379,68,379Z "/>
	</g>
</svg>