<svg version="1.1" xmlns="http://www.w3.org/2000/svg" xmlns:xlink="http://www.w3.org/1999/xlink" viewBox="0,0,637,637">
	<g>
		<path d="M0,0M173,285 C171,285,169,285,167,285 C162.33333333,285,156.16666667,284.5,148.5,283.5 C140.83333333,282.5,131.33333333,279.33333333,120,274 C110,268,101.66666667,261.16666667,95,253.5 C88.33333333,245.83333333,83.33333333,238.16666667,80,230.5 C76.66666667,222.83333333,74.16666667,216.16666667,72.5,210.5 C70.83333333,204.83333333,70,201,70,199 C69.33333333,193,69,187,69,181 C69,155.66666667,75.33333333,130,88,104 C100.66666667,78,121,57,149,41 C165,31.66666667,179.66666667,26,193,24 C206.33333333,22,217.33333333,21,226,21 C234,21,244,21.83333333,256,23.5 C268,25.16666667,281.33333333,29.16666667,296,35.5 C310.66666667,41.83333333,323.66666667,49,335,57 C351,68.33333333,364,80.83333333,374,94.5 C384,108.16666667,391.66666667,121.33333333,397,134 C402.33333333,146.66666667,406,157.83333333,408,167.5 C410,177.16666667,411.33333333,184,412,188 C413.33333333,197.33333333,414,206.33333333,414,215 C414,230.33333333,411.5,246.83333333,406.5,264.5 C401.5,282.16666667,394.33333333,298.83333333,385,314.5 C375.66666667,330.16666667,366.66666667,342.66666667,358,352 C349.33333333,361.33333333,344,366.66666667,342,368 C325.33333333,384.66666667,309.83333333,398.33333333,295.5,409 C281.16666667,419.66666667,268.33333333,428.66666667,257,436 C250.33333333,440,242.66666667,444.5,234,449.5 C225.33333333,454.5,214.33333333,460.66666667,201,468 C189.66666667,474,179.66666667,479.5,171,484.5 C162.33333333,489.5,154.66666667,493.66666667,148,497 C136.66666667,507,124.83333333,517.83333333,112.5,529.5 C100.16666667,541.16666667,87.33333333,554.33333333,74,569 C63.33333333,581,53.5,592.66666667,44.5,604 C35.5,615.33333333,27.33333333,626.33333333,20,637 C20,637,447,637,447,637 C447,637,563,482,563,482 C563,482,531,482,531,482 C531,482,453,579,453,579 C453,579,119,579,119,579 C119,579,149,532,149,532 C165,522,180.66666667,512.33333333,196,503 C196,503,288,445,288,445 C304,435,319.66666667,425.33333333,335,416 C341.66666667,410.66666667,353.5,400.66666667,370.5,386 C387.5,371.33333333,404.5,353,421.5,331 C438.5,309,452.16666667,285.5,462.5,260.5 C472.83333333,235.5,478,211,478,187 C478,180.33333333,477.66666667,173.33333333,477,166 C477,166,477,165,477,165 C475,141.66666667,466,120.33333333,450,101 C441.33333333,89.66666667,430.66666667,78.16666667,418,66.5 C405.33333333,54.83333333,390,44,372,34 C339.33333333,15.33333333,311.83333333,5,289.5,3 C267.16666667,1,249.66666667,0,237,0 C221.66666667,0,207.66666667,1,195,3 C168.33333333,7,143.5,15.83333333,120.5,29.5 C97.5,43.16666667,78.66666667,61,64,83 C52.66666667,100.33333333,45,116.5,41,131.5 C37,146.5,35,160.33333333,35,173 C35,179.66666667,35.33333333,186.33333333,36,193 C38,209,41.83333333,223.16666667,47.5,235.5 C53.16666667,247.83333333,59.5,258.66666667,66.5,268 C73.5,277.33333333,80.16666667,285,86.5,291 C92.83333333,297,97.33333333,301,100,303 C100,303,163,303,163,303 C163,303,173,285,173,285Z "/>
	</g>
</svg>