<svg version="1.1" xmlns="http://www.w3.org/2000/svg" xmlns:xlink="http://www.w3.org/1999/xlink" viewBox="0,0,640,640">
	<g>
		<path d="M0,0M547,251 C547,216.33333333,540.16666667,183.66666667,526.5,153 C512.83333333,122.33333333,494,95.66666667,470,73 C446,50.33333333,418,32.5,386,19.5 C354,6.5,319.66666667,0,283,0 C247,0,213,6.5,181,19.5 C149,32.5,121,50.33333333,97,73 C73,95.66666667,54.16666667,122.33333333,40.5,153 C26.83333333,183.66666667,20,216.33333333,20,251 C20,285.66666667,26.83333333,318.33333333,40.5,349 C54.16666667,379.66666667,73,406.33333333,97,429 C121,451.66666667,149,469.66666667,181,483 C213,496.33333333,247,503,283,503 C311.66666667,503,339,499,365,491 C391,483,414.66666667,471.66666667,436,457 C421.33333333,477,404.33333333,496.66666667,385,516 C359,541.33333333,331.83333333,561.83333333,303.5,577.5 C275.16666667,593.16666667,248.16666667,605.5,222.5,614.5 C196.83333333,623.5,173.33333333,629.66666667,152,633 C130.66666667,636.33333333,113.66666667,638.66666667,101,640 C106.33333333,640,117.33333333,639,134,637 C150.66666667,635,170.83333333,631.5,194.5,626.5 C218.16666667,621.5,244,614.33333333,272,605 C300,595.66666667,327.83333333,583,355.5,567 C383.16666667,551,409.66666667,531.5,435,508.5 C460.33333333,485.5,482,457.66666667,500,425 C508.66666667,410.33333333,516.83333333,392.83333333,524.5,372.5 C532.16666667,352.16666667,537.66666667,328.33333333,541,301 C545,285,547,268.33333333,547,251Z M283,480 C255,480,228.5,474,203.5,462 C178.5,450,156.83333333,433.66666667,138.5,413 C120.16666667,392.33333333,105.66666667,368.16666667,95,340.5 C84.33333333,312.83333333,79,283,79,251 C79,219.66666667,84.33333333,190,95,162 C105.66666667,134,120.16666667,109.66666667,138.5,89 C156.83333333,68.33333333,178.5,52,203.5,40 C228.5,28,255,22,283,22 C311,22,337.5,28,362.5,40 C387.5,52,409.33333333,68.33333333,428,89 C446.66666667,109.66666667,461.33333333,134,472,162 C482.66666667,190,488,219.66666667,488,251 C488,283,482.66666667,312.83333333,472,340.5 C461.33333333,368.16666667,446.66666667,392.33333333,428,413 C409.33333333,433.66666667,387.5,450,362.5,462 C337.5,474,311,480,283,480Z "/>
	</g>
</svg>