<svg version="1.1" xmlns="http://www.w3.org/2000/svg" xmlns:xlink="http://www.w3.org/1999/xlink" viewBox="0,0,642,642">
	<g>
		<path d="M0,0M325,0 C283,0,243.33333333,8.5,206,25.5 C168.66666667,42.5,136.33333333,65.5,109,94.5 C81.66666667,123.5,60,157.5,44,196.5 C28,235.5,20,277,20,321 C20,365,28,406.5,44,445.5 C60,484.5,81.66666667,518.5,109,547.5 C136.33333333,576.5,168.66666667,599.5,206,616.5 C243.33333333,633.5,283,642,325,642 C367,642,406.5,633.5,443.5,616.5 C480.5,599.5,512.66666667,576.5,540,547.5 C567.33333333,518.5,589,484.5,605,445.5 C621,406.5,629,365,629,321 C629,277,621,235.5,605,196.5 C589,157.5,567.33333333,123.5,540,94.5 C512.66666667,65.5,480.5,42.5,443.5,25.5 C406.5,8.5,367,0,325,0Z M325,618 C292.33333333,618,261.33333333,610.16666667,232,594.5 C202.66666667,578.83333333,177.33333333,557.66666667,156,531 C134.66666667,504.33333333,117.66666667,472.83333333,105,436.5 C92.33333333,400.16666667,86,361.66666667,86,321 C86,279.66666667,92.33333333,241,105,205 C117.66666667,169,134.66666667,137.66666667,156,111 C177.33333333,84.33333333,202.66666667,63.16666667,232,47.5 C261.33333333,31.83333333,292.33333333,24,325,24 C358.33333333,24,389,31.83333333,417,47.5 C445,63.16666667,469.5,84.33333333,490.5,111 C511.5,137.66666667,527.83333333,169,539.5,205 C551.16666667,241,557,279.66666667,557,321 C557,361.66666667,551.16666667,400.16666667,539.5,436.5 C527.83333333,472.83333333,511.5,504.33333333,490.5,531 C469.5,557.66666667,445,578.83333333,417,594.5 C389,610.16666667,358.33333333,618,325,618Z "/>
	</g>
</svg>