<svg version="1.1" xmlns="http://www.w3.org/2000/svg" xmlns:xlink="http://www.w3.org/1999/xlink" viewBox="0,0,640,640">
	<g>
		<path d="M0,0M20,387 C20,421.66666667,26.83333333,454.33333333,40.5,485 C54.16666667,515.66666667,73,542.33333333,97,565 C121,587.66666667,149,605.66666667,181,619 C213,632.33333333,247,639,283,639 C319.66666667,639,354,632.33333333,386,619 C418,605.66666667,446,587.66666667,470,565 C494,542.33333333,512.83333333,515.66666667,526.5,485 C540.16666667,454.33333333,547,421.66666667,547,387 C547,352.33333333,540.16666667,319.66666667,526.5,289 C512.83333333,258.33333333,494,231.66666667,470,209 C446,186.33333333,418,168.5,386,155.5 C354,142.5,319.66666667,136,283,136 C255,136,228,140,202,148 C176,156,152.33333333,167.33333333,131,182 C145.66666667,162,162.66666667,142.33333333,182,123 C208,97.66666667,235.16666667,77.16666667,263.5,61.5 C291.83333333,45.83333333,318.83333333,33.5,344.5,24.5 C370.16666667,15.5,393.66666667,9,415,5 C423,3.66666667,430.33333333,2.66666667,437,2 C451.66666667,0.66666667,461.33333333,-0.33333333,466,-1 C458,-0.33333333,448.33333333,0.66666667,437,2 C435.66666667,2,434.33333333,2,433,2 C416.33333333,4,396.16666667,7.5,372.5,12.5 C348.83333333,17.5,323,24.66666667,295,34 C267,43.33333333,239.16666667,55.83333333,211.5,71.5 C183.83333333,87.16666667,157.33333333,106.5,132,129.5 C106.66666667,152.5,85,180.33333333,67,213 C58.33333333,228.33333333,50.16666667,246.16666667,42.5,266.5 C34.83333333,286.83333333,29,310.33333333,25,337 C23.66666667,345.66666667,22.5,354,21.5,362 C20.5,370,20,378.33333333,20,387Z M283,158 C311,158,337.5,164,362.5,176 C387.5,188,409.33333333,204.33333333,428,225 C446.66666667,245.66666667,461.33333333,270,472,298 C482.66666667,326,488,355.66666667,488,387 C488,419,482.66666667,448.83333333,472,476.5 C461.33333333,504.16666667,446.66666667,528.33333333,428,549 C409.33333333,569.66666667,387.5,586,362.5,598 C337.5,610,311,616,283,616 C255,616,228.5,610,203.5,598 C178.5,586,156.83333333,569.66666667,138.5,549 C120.16666667,528.33333333,105.66666667,504.16666667,95,476.5 C84.33333333,448.83333333,79,419,79,387 C79,355.66666667,84.33333333,326,95,298 C105.66666667,270,120.16666667,245.66666667,138.5,225 C156.83333333,204.33333333,178.5,188,203.5,176 C228.5,164,255,158,283,158Z "/>
	</g>
</svg>