<svg version="1.1" xmlns="http://www.w3.org/2000/svg" xmlns:xlink="http://www.w3.org/1999/xlink" viewBox="0,0,611,611">
	<g>
		<path d="M0,0M353,451 C353,451,353,586,353,586 C353,591.33333333,351.33333333,595.5,348,598.5 C344.66666667,601.5,340.33333333,603.66666667,335,605 C331,605.66666667,327,606.33333333,323,607 C323,607,314,609,314,609 C310,609,306,609.66666667,302,611 C302,611,465,611,465,611 C459.66666667,609.66666667,453.83333333,608.66666667,447.5,608 C441.16666667,607.33333333,435.5,606.33333333,430.5,605 C425.5,603.66666667,421.33333333,601.5,418,598.5 C414.66666667,595.5,413,591.33333333,413,586 C413,586,413,451,413,451 C413,451,470,451,470,451 C470,451,470,426,470,426 C470,426,413,426,413,426 C413,426,413,0,413,0 C413,0,392,0,392,0 C392,0,20,431,20,431 C20,431,20,451,20,451 C20,451,353,451,353,451Z M353,81 C353,81,353,426,353,426 C353,426,55,426,55,426 C55,426,353,81,353,81Z "/>
	</g>
</svg>