<svg version="1.1" xmlns="http://www.w3.org/2000/svg" xmlns:xlink="http://www.w3.org/1999/xlink" viewBox="0,0,640,640">
	<g>
		<path d="M0,0M24,138 C24,138,131,75,131,75 C131,75,131,582,131,582 C131,588.66666667,129.66666667,595.66666667,127,603 C123.66666667,610.33333333,119.16666667,616.33333333,113.5,621 C107.83333333,625.66666667,102.33333333,629.33333333,97,632 C91.66666667,634.66666667,86.66666667,636.66666667,82,638 C77.33333333,639.33333333,74.33333333,640,73,640 C73,640,255,640,255,640 C253.66666667,640,250.83333333,639.33333333,246.5,638 C242.16666667,636.66666667,237.5,634.66666667,232.5,632 C227.5,629.33333333,222.5,625.66666667,217.5,621 C212.5,616.33333333,208.33333333,610.66666667,205,604 C202.33333333,598.66666667,201,592.66666667,201,586 C201,586,201,0,201,0 C201,0,20,104,20,104 C20,104,24,138,24,138Z "/>
	</g>
</svg>