<svg version="1.1" xmlns="http://www.w3.org/2000/svg" xmlns:xlink="http://www.w3.org/1999/xlink" viewBox="0,0,611,611">
	<g>
		<path d="M0,0M189,611 C189,611,189,607,189,607 C189,555,193.66666667,503,203,451 C212.33333333,399,230,350,256,304 C273.33333333,273.33333333,293,244.16666667,315,216.5 C337,188.83333333,357.66666667,160,377,130 C390.33333333,108,399.83333333,87.83333333,405.5,69.5 C411.16666667,51.16666667,416.33333333,29.66666667,421,5 C421,5,422,0,422,0 C422,0,38,0,38,0 C38,0,20,144,20,144 C20,144,45,144,45,144 C45,144,46,140,46,140 C48,130.66666667,50.5,121.16666667,53.5,111.5 C56.5,101.83333333,60.5,93.16666667,65.5,85.5 C70.5,77.83333333,76.66666667,71.5,84,66.5 C91.33333333,61.5,100.33333333,59,111,59 C111,59,383,59,383,59 C378.33333333,71.66666667,372.83333333,83.5,366.5,94.5 C360.16666667,105.5,353.33333333,116.33333333,346,127 C338,138.33333333,329.5,149.16666667,320.5,159.5 C311.5,169.83333333,302.33333333,180.66666667,293,192 C264.33333333,224,239.66666667,255,219,285 C198.33333333,315,181.33333333,346,168,378 C154.66666667,410,144.83333333,444.16666667,138.5,480.5 C132.16666667,516.83333333,129,557.66666667,129,603 C129,603,129,611,129,611 C129,611,189,611,189,611Z "/>
	</g>
</svg>