<svg version="1.1" xmlns="http://www.w3.org/2000/svg" xmlns:xlink="http://www.w3.org/1999/xlink" viewBox="0,0,642,642">
	<g>
		<path d="M0,0M395,0 C396.33333333,0,398.83333333,0.5,402.5,1.5 C406.16666667,2.5,409.83333333,4.16666667,413.5,6.5 C417.16666667,8.83333333,420.66666667,12,424,16 C427.33333333,20,429,25.33333333,429,32 C429,40,427.33333333,47.66666667,424,55 C420.66666667,62.33333333,418,67.66666667,416,71 C401.33333333,93.66666667,387,116,373,138 C373,138,346,183,346,183 C332,205.66666667,317.66666667,228.33333333,303,251 C303,251,191,71,191,71 C188.33333333,67.66666667,185.5,62.33333333,182.5,55 C179.5,47.66666667,178,40,178,32 C178,25.33333333,179.66666667,20,183,16 C186.33333333,12,189.83333333,8.83333333,193.5,6.5 C197.16666667,4.16666667,200.83333333,2.5,204.5,1.5 C208.16666667,0.5,211,0,211,0 C211,0,20,0,20,0 C35.33333333,3.33333333,47.66666667,7.33333333,57,12 C66.33333333,16.66666667,74,21.33333333,80,26 C86,30.66666667,92,36,98,42 C104,48,109.16666667,53.66666667,113.5,59 C117.83333333,64.33333333,121.5,68.83333333,124.5,72.5 C127.5,76.16666667,129,78,129,78 C129,78,133,84.16666667,141,96.5 C149,108.83333333,159.33333333,125,172,145 C184.66666667,165,199.16666667,188.16666667,215.5,214.5 C231.83333333,240.83333333,248.66666667,268,266,296 C266,296,266,561,266,561 C265.33333333,572.33333333,263.66666667,582,261,590 C258.33333333,598,255.66666667,604.33333333,253,609 C247.66666667,617.66666667,242,625,236,631 C230,637,227,640.66666667,227,642 C227,642,227,642,227,642 C237.66666667,640.66666667,251,639.66666667,267,639 C276.33333333,638.33333333,287,638,299,638 C305.66666667,638,315.83333333,638.16666667,329.5,638.5 C343.16666667,638.83333333,364.33333333,639.66666667,393,641 C389.66666667,639.66666667,383.33333333,637.16666667,374,633.5 C364.66666667,629.83333333,356,622.33333333,348,611 C338.66666667,599,333.83333333,588.83333333,333.5,580.5 C333.16666667,572.16666667,333,566.33333333,333,563 C333,559,333,556.33333333,333,555 C333,527,333,498.66666667,333,470 C332.33333333,446,332,419.66666667,332,391 C332,362.33333333,332,335.33333333,332,310 C332,310,336,303,336,303 C354,274.33333333,371.33333333,246.5,388,219.5 C404.66666667,192.5,419.66666667,168.5,433,147.5 C446.33333333,126.5,457,109.66666667,465,97 C473,84.33333333,478,78,478,78 C478,78,479.5,76.16666667,482.5,72.5 C485.5,68.83333333,489.16666667,64.33333333,493.5,59 C497.83333333,53.66666667,503,48,509,42 C515,36,521,30.66666667,527,26 C532.33333333,21.33333333,539.83333333,16.66666667,549.5,12 C559.16666667,7.33333333,571.66666667,3.33333333,587,0 C587,0,395,0,395,0Z "/>
	</g>
</svg>