<svg version="1.1" xmlns="http://www.w3.org/2000/svg" xmlns:xlink="http://www.w3.org/1999/xlink" viewBox="0,0,642,642">
	<g>
		<path d="M0,0M542,609 C536,604.33333333,529.16666667,598,521.5,590 C513.83333333,582,506,572.33333333,498,561 C470.66666667,517.66666667,443.66666667,474.66666667,417,432 C390.33333333,389.33333333,363.66666667,346.33333333,337,303 C355,274.33333333,372.33333333,246.5,389,219.5 C405.66666667,192.5,420.66666667,168.5,434,147.5 C447.33333333,126.5,458,109.66666667,466,97 C474,84.33333333,479,78,479,78 C479,78,480.33333333,76.16666667,483,72.5 C485.66666667,68.83333333,489.33333333,64.33333333,494,59 C498.66666667,53.66666667,503.83333333,48,509.5,42 C515.16666667,36,521,30.66666667,527,26 C533,21.33333333,540.83333333,16.66666667,550.5,12 C560.16666667,7.33333333,572.33333333,3.33333333,587,0 C587,0,396,0,396,0 C397.33333333,0,399.83333333,0.5,403.5,1.5 C407.16666667,2.5,410.83333333,4.16666667,414.5,6.5 C418.16666667,8.83333333,421.5,12,424.5,16 C427.5,20,429,25.33333333,429,32 C429,33.33333333,429,34.66666667,429,36 C429,42.66666667,427.5,49.33333333,424.5,56 C421.5,62.66666667,418.66666667,67.66666667,416,71 C416,71,304,251,304,251 C304,251,192,71,192,71 C189.33333333,67.66666667,186.5,62.66666667,183.5,56 C180.5,49.33333333,179,42.66666667,179,36 C179,34.66666667,179,33.33333333,179,32 C179,25.33333333,180.5,20,183.5,16 C186.5,12,190,8.83333333,194,6.5 C198,4.16666667,201.83333333,2.5,205.5,1.5 C209.16666667,0.5,212,0,212,0 C212,0,21,0,21,0 C35.66666667,3.33333333,47.83333333,7.33333333,57.5,12 C67.16666667,16.66666667,75,21.33333333,81,26 C87,30.66666667,92.83333333,36,98.5,42 C104.16666667,48,109.33333333,53.66666667,114,59 C118.66666667,64.33333333,122.33333333,68.83333333,125,72.5 C127.66666667,76.16666667,129,78,129,78 C129,78,134,84.33333333,142,97 C150,109.66666667,160.66666667,126.5,174,147.5 C187.33333333,168.5,202.33333333,192.5,219,219.5 C235.66666667,246.5,253,274.33333333,271,303 C244.33333333,346.33333333,217.66666667,389.33333333,191,432 C164.33333333,474.66666667,137.33333333,517.66666667,110,561 C102,572.33333333,94.16666667,582,86.5,590 C78.83333333,598,72,604.33333333,66,609 C56,617.66666667,46,625,36,631 C26,637,21,640.66666667,21,642 C21,642,21,642,21,642 C32.33333333,640.66666667,46,639.66666667,62,639 C71.33333333,638.33333333,82,638,94,638 C100.66666667,638,110.83333333,638.16666667,124.5,638.5 C138.16666667,638.83333333,159,639.66666667,187,641 C184.33333333,639.66666667,179.66666667,637.16666667,173,633.5 C166.33333333,629.83333333,162.33333333,622.33333333,161,611 C161,609,161,607,161,605 C161,595,163.66666667,585,169,575 C174.33333333,565,178.33333333,558.33333333,181,555 C192.33333333,536.33333333,204.66666667,516.33333333,218,495 C229.33333333,476.33333333,242.5,455,257.5,431 C272.5,407,288,382,304,356 C320.66666667,382,336.33333333,407,351,431 C365.66666667,455,378.66666667,476.33333333,390,495 C403.33333333,516.33333333,415.66666667,536.33333333,427,555 C429.66666667,558.33333333,433.66666667,565,439,575 C444.33333333,585,447,595,447,605 C447,607,447,609,447,611 C445.66666667,622.33333333,441.66666667,629.83333333,435,633.5 C428.33333333,637.16666667,423.66666667,639.66666667,421,641 C449,639.66666667,469.83333333,638.83333333,483.5,638.5 C497.16666667,638.16666667,507.33333333,638,514,638 C526,638,536.66666667,638.33333333,546,639 C562,639.66666667,575.66666667,640.66666667,587,642 C587,642,587,642,587,642 C587,640.66666667,582,637,572,631 C562,625,552,617.66666667,542,609Z "/>
	</g>
</svg>