<svg version="1.1" xmlns="http://www.w3.org/2000/svg" xmlns:xlink="http://www.w3.org/1999/xlink" viewBox="0,0,645,645">
	<g>
		<path d="M0,0M585,128 C573,109.33333333,559.66666667,93.16666667,545,79.5 C530.33333333,65.83333333,515,54,499,44 C472.33333333,26.66666667,443.83333333,14,413.5,6 C383.16666667,-2,352,-6,320,-6 C320,-6,20,-6,20,-6 C22.66666667,-6,30,-4,42,0 C54,4,64.66666667,12.66666667,74,26 C79.33333333,34,82.5,41.66666667,83.5,49 C84.5,56.33333333,85,61.66666667,85,65 C85,65,85,555,85,555 C84.33333333,566.33333333,82.66666667,576,80,584 C77.33333333,592,74.33333333,598.33333333,71,603 C66.33333333,611.66666667,61,619,55,625 C49,631,46,634.66666667,46,636 C46,636,46,636,46,636 C56.66666667,634.66666667,70,633.66666667,86,633 C94.66666667,632.33333333,105.33333333,632,118,632 C124,632,134,632.16666667,148,632.5 C162,632.83333333,183,633.66666667,211,635 C238.33333333,636.33333333,260.5,637.33333333,277.5,638 C294.5,638.66666667,306.66666667,639,314,639 C334,639,354.66666667,638,376,636 C384,636,394.16666667,635.16666667,406.5,633.5 C418.83333333,631.83333333,432,628.33333333,446,623 C470.66666667,613.66666667,493.83333333,598.66666667,515.5,578 C537.16666667,557.33333333,556.16666667,533.33333333,572.5,506 C588.83333333,478.66666667,602,448.83333333,612,416.5 C622,384.16666667,627.66666667,357.66666667,629,337 C630.33333333,316.33333333,631,302,631,294 C631,268.66666667,627.83333333,241.66666667,621.5,213 C615.16666667,184.33333333,603,156,585,128Z M414,591 C408.66666667,594.33333333,403.33333333,596.66666667,398,598 C392.66666667,599.33333333,387.66666667,600.66666667,383,602 C377,603.33333333,371,604.16666667,365,604.5 C359,604.83333333,353,605,347,605 C347,605,167,605,167,605 C157.66666667,593,152.83333333,582.83333333,152.5,574.5 C152.16666667,566.16666667,152,560.33333333,152,557 C152,553,152,550.33333333,152,549 C151.33333333,459.66666667,151,380,151,310 C151,280,150.83333333,250.83333333,150.5,222.5 C150.16666667,194.16666667,150,168.83333333,150,146.5 C150,124.16666667,150.16666667,106.16666667,150.5,92.5 C150.83333333,78.83333333,152,72,152,72 C152,72,152.33333333,70.16666667,153,66.5 C153.66666667,62.83333333,154.5,58.33333333,155.5,53 C156.5,47.66666667,158,42,160,36 C162,30,164.66666667,24.66666667,168,20 C170.66666667,16,173.33333333,12.66666667,176,10 C176,10,279,10,279,10 C323.66666667,10,365.66666667,20.33333333,405,41 C444.33333333,61.66666667,476.33333333,90.66666667,501,128 C502.33333333,130.66666667,504.33333333,134,507,138 C522.33333333,164,533.66666667,192,541,222 C548.33333333,252,552,282.16666667,552,312.5 C552,342.83333333,548.66666667,372.5,542,401.5 C535.33333333,430.5,526,457.5,514,482.5 C502,507.5,487.5,529.33333333,470.5,548 C453.5,566.66666667,434.66666667,581,414,591Z "/>
	</g>
</svg>