<svg version="1.1" xmlns="http://www.w3.org/2000/svg" xmlns:xlink="http://www.w3.org/1999/xlink" viewBox="0,0,643,643">
	<g>
		<path d="M0,0M20,-1 C22.66666667,-1,30,1,42,5 C54,9,64.66666667,17.66666667,74,31 C79.33333333,39,82.5,46.66666667,83.5,54 C84.5,61.33333333,85,66.66666667,85,70 C85,70,85,561,85,561 C84.33333333,572.33333333,82.66666667,582,80,590 C77.33333333,598,74.33333333,604.33333333,71,609 C66.33333333,617.66666667,61,625,55,631 C49,637,46,640.66666667,46,642 C46,642,46,642,46,642 C56.66666667,640.66666667,70,639.66666667,86,639 C95.33333333,638.33333333,106,638,118,638 C124.66666667,638,134.83333333,638.16666667,148.5,638.5 C162.16666667,638.83333333,183.33333333,639.66666667,212,641 C208.66666667,639.66666667,202.33333333,637.16666667,193,633.5 C183.66666667,629.83333333,175,622.33333333,167,611 C157.66666667,599,152.83333333,588.83333333,152.5,580.5 C152.16666667,572.16666667,152,566.33333333,152,563 C152,559,152,556.33333333,152,555 C151.33333333,465.66666667,151,386,151,316 C151,316,151,151,151,151 C151,129,151.16666667,111.16666667,151.5,97.5 C151.83333333,83.83333333,152,77,152,77 C152,77,152.33333333,75.16666667,153,71.5 C153.66666667,67.83333333,154.5,63.33333333,155.5,58 C156.5,52.66666667,158,47,160,41 C162,35,164.66666667,29.66666667,168,25 C171.33333333,20.33333333,176.16666667,15.66666667,182.5,11 C188.83333333,6.33333333,198.66666667,2.33333333,212,-1 C212,-1,20,-1,20,-1Z "/>
	</g>
</svg>