<svg version="1.1" xmlns="http://www.w3.org/2000/svg" xmlns:xlink="http://www.w3.org/1999/xlink" viewBox="0,0,644,644">
	<g>
		<path d="M0,0M451,164 C468.33333333,157.33333333,482.83333333,148.16666667,494.5,136.5 C506.16666667,124.83333333,512.66666667,111.66666667,514,97 C514,94.33333333,514,92,514,90 C514,80.66666667,511.83333333,71,507.5,61 C503.16666667,51,495.83333333,41.33333333,485.5,32 C475.16666667,22.66666667,462.5,15,447.5,9 C432.5,3,415.66666667,0,397,0 C397,0,20,0,20,0 C21.33333333,0,23.83333333,0.33333333,27.5,1 C31.16666667,1.66666667,35.66666667,3.16666667,41,5.5 C46.33333333,7.83333333,51.83333333,11.16666667,57.5,15.5 C63.16666667,19.83333333,68.33333333,25.33333333,73,32 C78.33333333,40,81.66666667,47.66666667,83,55 C84.33333333,62.33333333,85,67.66666667,85,71 C85,71,85,563,85,563 C83.66666667,574.33333333,81.83333333,583.83333333,79.5,591.5 C77.16666667,599.16666667,74.33333333,605.66666667,71,611 C65.66666667,619,60,626.33333333,54,633 C48,639.66666667,45,644,45,644 C51.66666667,644,59.66666667,644,69,644 C77,644,87.16666667,643.83333333,99.5,643.5 C111.83333333,643.16666667,126.33333333,643,143,643 C163,643,183,643,203,643 C203,643,325,644,325,644 C345.66666667,644,365.66666667,644,385,644 C416.33333333,638.66666667,445.16666667,628.83333333,471.5,614.5 C497.83333333,600.16666667,520.66666667,582.33333333,540,561 C559.33333333,539.66666667,574.83333333,515.66666667,586.5,489 C598.16666667,462.33333333,604.33333333,434.33333333,605,405 C605,401,605,397,605,393 C605,371.66666667,601.83333333,350,595.5,328 C589.16666667,306,579.33333333,284.5,566,263.5 C552.66666667,242.5,536.16666667,223.33333333,516.5,206 C496.83333333,188.66666667,475,174.66666667,451,164Z M389,21 C391.66666667,21,394.33333333,21,397,21 C413,21,427.66666667,26.66666667,441,38 C454.33333333,49.33333333,461.66666667,64.66666667,463,84 C463,86,463,87.66666667,463,89 C463,105,457.33333333,119.83333333,446,133.5 C434.66666667,147.16666667,419.66666667,154.66666667,401,156 C387.66666667,153.33333333,374,151.33333333,360,150 C346,148.66666667,335.66666667,148,329,148 C313,148,295.33333333,149.66666667,276,153 C246,158.33333333,220.5,165.83333333,199.5,175.5 C178.5,185.16666667,162,194,150,202 C150.66666667,186,151,170.33333333,151,155 C151,155,151,123,151,123 C151,107.66666667,151.33333333,92,152,76 C152.66666667,72.66666667,154,65.5,156,54.5 C158,43.5,162,34,168,26 C169.33333333,23.33333333,170.66666667,21.66666667,172,21 C172,21,389,21,389,21Z M481,554 C471,566,460,576,448,584 C414.66666667,607.33333333,376.66666667,619,334,619 C334,619,172,619,172,619 C172,619,169,615,169,615 C169,615,167,613,167,613 C157.66666667,601,152.83333333,590.83333333,152.5,582.5 C152.16666667,574.16666667,152,568.33333333,152,565 C152,561,152,558.33333333,152,557 C151.33333333,521.66666667,151,485.66666667,151,449 C151,417,150.83333333,382.33333333,150.5,345 C150.16666667,307.66666667,150,271.66666667,150,237 C194.66666667,205,232.33333333,186.5,263,181.5 C293.66666667,176.5,315.33333333,174,328,174 C361.33333333,174,392,181.66666667,420,197 C428.66666667,202.33333333,438.66666667,209.5,450,218.5 C461.33333333,227.5,472.66666667,239.66666667,484,255 C499.33333333,281.66666667,510.83333333,308.5,518.5,335.5 C526.16666667,362.5,530,388.66666667,530,414 C530,414,529.83333333,421.83333333,529.5,435.5 C529.16666667,449.16666667,525,467.83333333,517,491.5 C509,515.16666667,497,536,481,554Z "/>
	</g>
</svg>