<svg version="1.1" xmlns="http://www.w3.org/2000/svg" xmlns:xlink="http://www.w3.org/1999/xlink" viewBox="0,0,749,749">
	<g>
		<path d="M0,0M741,749 C737.66666667,747.66666667,734.16666667,746.16666667,730.5,744.5 C726.83333333,742.83333333,722.66666667,740.33333333,718,737 C712.66666667,732.33333333,708.66666667,727.83333333,706,723.5 C703.33333333,719.16666667,701.33333333,715.33333333,700,712 C700,712,390,128,390,128 C384.66666667,118,382,107.66666667,382,97 C382,90.33333333,383.33333333,83.33333333,386,76 C386,76,406,16,406,16 C406,16,391,0,391,0 C347,90.66666667,303.33333333,181.33333333,260,272 C260,272,175,452,175,452 C131.66666667,542,88,632.66666667,44,724 C43.33333333,725.33333333,42.33333333,727.5,41,730.5 C39.66666667,733.5,37.66666667,736.66666667,35,740 C29.66666667,744.66666667,24.66666667,747.66666667,20,749 C20,749,107,749,107,749 C105.66666667,747.66666667,103.5,745.5,103.5,745.5 C103.5,745.5,101.33333333,742.66666667,100,740 C98.66666667,736.66666667,97.83333333,733.83333333,97.5,731.5 C97.16666667,729.16666667,97,727.33333333,97,726 C97,726,161,591,161,591 C161,591,544,591,544,591 C552.66666667,609.66666667,561.16666667,629.5,569.5,650.5 C577.83333333,671.5,586.66666667,691.33333333,596,710 C596.66666667,711.33333333,597.16666667,713.16666667,597.5,715.5 C597.83333333,717.83333333,598,719.66666667,598,721 C598,724.33333333,597.33333333,728,596,732 C590.66666667,743.33333333,580.66666667,749,566,749 C566,749,741,749,741,749Z M167,557 C167,557,339,188,339,188 C339,188,523,557,523,557 C523,557,167,557,167,557Z "/>
	</g>
</svg>