<svg version="1.1" xmlns="http://www.w3.org/2000/svg" xmlns:xlink="http://www.w3.org/1999/xlink" viewBox="0,0,644,644">
	<g>
		<path d="M0,0M548,546 C548,546,532,533,532,533 C532,533,465,603,465,603 C465,603,162,603,162,603 C156,591.66666667,152.83333333,582.66666667,152.5,576 C152.16666667,569.33333333,152,564.33333333,152,561 C152,558.33333333,152,556.33333333,152,555 C151.33333333,465.66666667,151,386,151,316 C151,286,150.83333333,256.66666667,150.5,228 C150.16666667,199.33333333,150,173.66666667,150,151 C150,128.33333333,150.16666667,110.16666667,150.5,96.5 C150.83333333,82.83333333,152,76,152,76 C152,76,152,77,152,77 C152,77,152.33333333,75.16666667,153,71.5 C153.66666667,67.83333333,154.5,63.33333333,155.5,58 C156.5,52.66666667,158,46.83333333,160,40.5 C162,34.16666667,164.66666667,28.66666667,168,24 C171.33333333,20,176.16666667,15.5,182.5,10.5 C188.83333333,5.5,198.66666667,1.33333333,212,-2 C212,-2,20,-2,20,-2 C21.33333333,-2,24,-1.5,28,-0.5 C32,0.5,36.66666667,2.16666667,42,4.5 C47.33333333,6.83333333,52.83333333,10,58.5,14 C64.16666667,18,69.33333333,23.66666667,74,31 C79.33333333,39,82.5,46.66666667,83.5,54 C84.5,61.33333333,85,66.66666667,85,70 C85,70,85,561,85,561 C84.33333333,572.33333333,82.66666667,581.83333333,80,589.5 C77.33333333,597.16666667,74.33333333,603.66666667,71,609 C65.66666667,617,60.16666667,624.16666667,54.5,630.5 C48.83333333,636.83333333,46,640.66666667,46,642 C46,642,46,642,46,642 C60,642,76,641.66666667,94,641 C109.33333333,641,128,641,150,641 C172,641,197,640.66666667,225,640 C225,640,477,642,477,642 C477,642,548,546,548,546Z "/>
	</g>
</svg>