<svg version="1.1" xmlns="http://www.w3.org/2000/svg" xmlns:xlink="http://www.w3.org/1999/xlink" viewBox="0,0,664,664">
	<g>
		<path d="M0,0M544,561 C543.33333333,572.33333333,541.66666667,582,539,590 C536.33333333,598,533.33333333,604.33333333,530,609 C524.66666667,617.66666667,519.16666667,625,513.5,631 C507.83333333,637,505,640.66666667,505,642 C505,642,505,642,505,642 C519,642,535,641.66666667,553,641 C568.33333333,641,587,640.83333333,609,640.5 C631,640.16666667,656,640,684,640 C682,640,678.66666667,639.5,674,638.5 C669.33333333,637.5,664.16666667,635.83333333,658.5,633.5 C652.83333333,631.16666667,647,628.16666667,641,624.5 C635,620.83333333,630,616.33333333,626,611 C616.66666667,599,611.83333333,588.83333333,611.5,580.5 C611.16666667,572.16666667,611,566.33333333,611,563 C611,559,611,556.33333333,611,555 C610.33333333,465.66666667,609.66666667,386,609,316 C609,316,609,152,609,152 C609,130,609.16666667,112.16666667,609.5,98.5 C609.83333333,84.83333333,610,78,610,78 C610,78,611,78,611,78 C611,78,611.33333333,76.16666667,612,72.5 C612.66666667,68.83333333,613.5,64.33333333,614.5,59 C615.5,53.66666667,617,48,619,42 C621,36,623.66666667,30.66666667,627,26 C630.33333333,21.33333333,635.16666667,16.66666667,641.5,12 C647.83333333,7.33333333,657.66666667,3.33333333,671,0 C671,0,528,0,528,0 C528,0,339,214,339,214 C339,214,116,19,116,19 C101.33333333,6.33333333,84.33333333,0,65,0 C65,0,20,0,20,0 C22.66666667,0.66666667,29.83333333,2.83333333,41.5,6.5 C53.16666667,10.16666667,63.66666667,18.66666667,73,32 C78.33333333,40,81.66666667,47.66666667,83,55 C84.33333333,62.33333333,85,67.66666667,85,71 C85,71,85,561,85,561 C83.66666667,572.33333333,81.83333333,582,79.5,590 C77.16666667,598,74.33333333,604.33333333,71,609 C68.33333333,613,64.83333333,617,60.5,621 C56.16666667,625,51.83333333,628.5,47.5,631.5 C43.16666667,634.5,39.5,637,36.5,639 C33.5,641,32,642,32,642 C46,642,62,641.66666667,80,641 C95.33333333,641,114,640.83333333,136,640.5 C158,640.16666667,183,640,211,640 C209.66666667,640,206,639.5,200,638.5 C194,637.5,187.16666667,635.83333333,179.5,633.5 C171.83333333,631.16666667,164.16666667,628.33333333,156.5,625 C148.83333333,621.66666667,142.66666667,617.66666667,138,613 C132,607.66666667,127.66666667,601.5,125,594.5 C122.33333333,587.5,121,574.33333333,121,555 C121,555,116,108,116,108 C116,108,318,280,318,280 C318,280,544,25,544,25 C544,25,544,561,544,561Z "/>
	</g>
</svg>