<svg version="1.1" xmlns="http://www.w3.org/2000/svg" xmlns:xlink="http://www.w3.org/1999/xlink" viewBox="0,0,1457,1457">
	<g>
		<path d="M0,0M320,-240 C278.66666667,-240,239.66666667,-231.66666667,203,-215 C166.33333333,-198.33333333,134.5,-175.83333333,107.5,-147.5 C80.5,-119.16666667,59.16666667,-85.83333333,43.5,-47.5 C27.83333333,-9.16666667,20,32,20,76 C20,120,27.83333333,161.16666667,43.5,199.5 C59.16666667,237.83333333,80.5,271.16666667,107.5,299.5 C134.5,327.83333333,166.33333333,350.33333333,203,367 C239.66666667,383.66666667,278.66666667,392,320,392 C361.33333333,392,400.33333333,383.66666667,437,367 C437,367,438,366,438,366 C441.33333333,367.33333333,444.66666667,368.66666667,448,370 C469.33333333,378,489.5,386.5,508.5,395.5 C527.5,404.5,546,413.83333333,564,423.5 C582,433.16666667,601.5,443.33333333,622.5,454 C643.5,464.66666667,666.83333333,475.5,692.5,486.5 C718.16666667,497.5,747.66666667,509,781,521 C791.66666667,525,802.5,528.83333333,813.5,532.5 C824.5,536.16666667,836.66666667,540,850,544 C863.33333333,548,878.16666667,552.5,894.5,557.5 C910.83333333,562.5,929.33333333,568.33333333,950,575 C976,583,997.66666667,589.33333333,1015,594 C1032.33333333,598.66666667,1047,602.5,1059,605.5 C1071,608.5,1080.83333333,610.83333333,1088.5,612.5 C1096.16666667,614.16666667,1103,615.66666667,1109,617 C1128.33333333,620.33333333,1150.16666667,623.83333333,1174.5,627.5 C1198.83333333,631.16666667,1226,633,1256,633 C1280.66666667,633,1312,630.33333333,1350,625 C1388,619.66666667,1430.33333333,607.66666667,1477,589 C1451.66666667,594.33333333,1424,598.66666667,1394,602 C1364,605.33333333,1336.33333333,607,1311,607 C1294.33333333,607,1276.66666667,606.33333333,1258,605 C1238,603.66666667,1217.5,601.16666667,1196.5,597.5 C1175.5,593.83333333,1149,587,1117,577 C1085,567,1044.5,552.83333333,995.5,534.5 C946.5,516.16666667,884,491.66666667,808,461 C752.66666667,438.33333333,702.16666667,418,656.5,400 C610.83333333,382,567.33333333,366.66666667,526,354 C510.66666667,350,495.66666667,346.33333333,481,343 C499.66666667,330.33333333,517,315.66666667,533,299 C559.66666667,271,580.83333333,237.83333333,596.5,199.5 C612.16666667,161.16666667,620,120,620,76 C620,32,612.16666667,-9.16666667,596.5,-47.5 C580.83333333,-85.83333333,559.5,-119.16666667,532.5,-147.5 C505.5,-175.83333333,473.66666667,-198.33333333,437,-215 C400.33333333,-231.66666667,361.33333333,-240,320,-240Z M320,360 C288.66666667,360,259.16666667,352.5,231.5,337.5 C203.83333333,322.5,179.66666667,302.16666667,159,276.5 C138.33333333,250.83333333,122,220.83333333,110,186.5 C98,152.16666667,92,115.33333333,92,76 C92,36.66666667,98,-0.16666667,110,-34.5 C122,-68.83333333,138.33333333,-98.83333333,159,-124.5 C179.66666667,-150.16666667,203.83333333,-170.5,231.5,-185.5 C259.16666667,-200.5,288.66666667,-208,320,-208 C351.33333333,-208,381,-200.5,409,-185.5 C437,-170.5,461.33333333,-150.16666667,482,-124.5 C502.66666667,-98.83333333,519,-68.83333333,531,-34.5 C543,-0.16666667,549,36.66666667,549,76 C549,115.33333333,543,152.16666667,531,186.5 C519,220.83333333,502.66666667,250.66666667,482,276 C464.66666667,298,444.33333333,316,421,330 C414.33333333,329.33333333,408,328.33333333,402,327 C374.66666667,323.66666667,346,322,316,322 C300.66666667,322,285.33333333,322.33333333,270,323 C264.66666667,323.66666667,260,324.16666667,256,324.5 C252,324.83333333,248.66666667,325,246,325 C260,326.33333333,278,328.66666667,300,332 C322,335.33333333,347,340.66666667,375,348 C377,348.66666667,379,349.33333333,381,350 C361.66666667,356.66666667,341.33333333,360,320,360Z "/>
	</g>
</svg>