<svg version="1.1" xmlns="http://www.w3.org/2000/svg" xmlns:xlink="http://www.w3.org/1999/xlink" viewBox="0,0,642,642">
	<g>
		<path d="M0,0M325,0 C283,0,243.33333333,8.5,206,25.5 C168.66666667,42.5,136.33333333,65.5,109,94.5 C81.66666667,123.5,60,157.5,44,196.5 C28,235.5,20,277,20,321 C20,365,28,406.5,44,445.5 C60,484.5,81.66666667,518.5,109,547.5 C136.33333333,576.5,168.66666667,599.5,206,616.5 C243.33333333,633.5,283,642,325,642 C367,642,406.5,633.5,443.5,616.5 C480.5,599.5,512.66666667,576.5,540,547.5 C567.33333333,518.5,589,484.5,605,445.5 C621,406.5,629,365,629,321 C629,277,621,235.5,605,196.5 C589,157.5,567.33333333,123.5,540,94.5 C512.66666667,65.5,480.5,42.5,443.5,25.5 C406.5,8.5,367,0,325,0Z M325,610 C293,610,263,602.33333333,235,587 C207,571.66666667,182.5,551,161.5,525 C140.5,499,123.83333333,468.5,111.5,433.5 C99.16666667,398.5,93,361,93,321 C93,281,99.16666667,243.5,111.5,208.5 C123.83333333,173.5,140.5,143,161.5,117 C182.5,91,207,70.33333333,235,55 C263,39.66666667,293,32,325,32 C357,32,387.16666667,39.66666667,415.5,55 C443.83333333,70.33333333,468.5,91,489.5,117 C510.5,143,527,173.5,539,208.5 C551,243.5,557,281,557,321 C557,361,551,398.5,539,433.5 C527,468.5,510.5,499,489.5,525 C468.5,551,443.83333333,571.66666667,415.5,587 C387.16666667,602.33333333,357,610,325,610Z "/>
	</g>
</svg>