<svg version="1.1" xmlns="http://www.w3.org/2000/svg" xmlns:xlink="http://www.w3.org/1999/xlink" viewBox="0,0,777,777">
	<g>
		<path d="M0,0M501,642 C509.66666667,642.66666667,517,644.83333333,523,648.5 C529,652.16666667,533.66666667,655.66666667,537,659 C540.33333333,662.33333333,543.33333333,666.83333333,546,672.5 C548.66666667,678.16666667,551.16666667,683.83333333,553.5,689.5 C555.83333333,695.16666667,557.83333333,699.83333333,559.5,703.5 C561.16666667,707.16666667,562,709,562,709 C562,691,561.66666667,670.33333333,561,647 C561,627,561,602.83333333,561,574.5 C561,546.16666667,560.66666667,514,560,478 C560,480,559.16666667,485.5,557.5,494.5 C555.83333333,503.5,553.66666667,513.83333333,551,525.5 C548.33333333,537.16666667,545.33333333,548.66666667,542,560 C538.66666667,571.33333333,535.33333333,580,532,586 C528,593.33333333,523.33333333,598.66666667,518,602 C512.66666667,605.33333333,502.66666667,607.33333333,488,608 C488,608,329,611,329,611 C329,611,69,611,69,611 C69,611,527,48,527,48 C539,24,545,-4.33333333,545,-37 C540.33333333,-29.66666667,534.33333333,-21.83333333,527,-13.5 C519.66666667,-5.16666667,508,-1,492,-1 C492,-1,81,-1,81,-1 C71.66666667,-1.66666667,64.16666667,-3.83333333,58.5,-7.5 C52.83333333,-11.16666667,48.33333333,-15,45,-19 C41.66666667,-22.33333333,38.5,-26.66666667,35.5,-32 C32.5,-37.33333333,30,-42.83333333,28,-48.5 C26,-54.16666667,24.16666667,-58.83333333,22.5,-62.5 C20.83333333,-66.16666667,20,-68,20,-68 C20,-50,20.33333333,-29.33333333,21,-6 C21,14,21.16666667,38.16666667,21.5,66.5 C21.83333333,94.83333333,22,127,22,163 C22,161,22.83333333,155.33333333,24.5,146 C26.16666667,136.66666667,28.33333333,126.33333333,31,115 C33.66666667,103.66666667,36.66666667,92.33333333,40,81 C43.33333333,69.66666667,46.66666667,61,50,55 C54,47.66666667,58.66666667,42.16666667,64,38.5 C69.33333333,34.83333333,79.33333333,33,94,33 C94,33,472,27,472,27 C472,27,20,557,20,557 C20,557,20,642,20,642 C20,642,501,642,501,642Z "/>
	</g>
</svg>