<svg version="1.1" xmlns="http://www.w3.org/2000/svg" xmlns:xlink="http://www.w3.org/1999/xlink" viewBox="0,0,671,671">
	<g>
		<path d="M0,0M472,125 C472,125,374,-1,374,-1 C374,0.33333333,373.5,4,372.5,10 C371.5,16,368,22,362,28 C356,33.33333333,349.33333333,36,342,36 C338,36,334,35.33333333,330,34 C322.66666667,31.33333333,315.16666667,29.33333333,307.5,28 C299.83333333,26.66666667,292,26,284,26 C281.33333333,26,278.33333333,26,275,26 C248.33333333,27.33333333,226.5,33.66666667,209.5,45 C192.5,56.33333333,181.33333333,64.66666667,176,70 C164.66666667,79.33333333,156.83333333,88,152.5,96 C148.16666667,104,145.33333333,110.66666667,144,116 C141.33333333,124,140,132,140,140 C140,149.33333333,142.5,160.16666667,147.5,172.5 C152.5,184.83333333,164.33333333,200.66666667,183,220 C210.33333333,249.33333333,242.33333333,274.66666667,279,296 C289.66666667,301.33333333,299.5,306.16666667,308.5,310.5 C317.5,314.83333333,325.66666667,318.66666667,333,322 C347.66666667,328,361.33333333,332.66666667,374,336 C386.66666667,339.33333333,398.66666667,342.83333333,410,346.5 C421.33333333,350.16666667,432.33333333,354.5,443,359.5 C453.66666667,364.5,464.66666667,371.33333333,476,380 C477.33333333,381.33333333,479,382,479,382 C498.33333333,398.66666667,512,417,520,437 C528,457,532,475.33333333,532,492 C532,500.66666667,531.33333333,509,530,517 C528,528.33333333,524,540,518,552 C509.33333333,570,495.33333333,585.33333333,476,598 C456.66666667,610.66666667,435.16666667,620.5,411.5,627.5 C387.83333333,634.5,368.83333333,638.33333333,354.5,639 C340.16666667,639.66666667,331,640,327,640 C305.66666667,640,286,637.33333333,268,632 C247.33333333,626.66666667,229.16666667,620.83333333,213.5,614.5 C197.83333333,608.16666667,182.33333333,602.33333333,167,597 C153,591.66666667,141.66666667,587,133,583 C124.33333333,579,117,573,111,565 C104.33333333,556.33333333,100.33333333,548,99,540 C97.66666667,532,97,525.66666667,97,521 C97,519,97,517,97,515 C87,533.66666667,77.33333333,552,68,570 C68,570,49,607,49,607 C39.66666667,625.66666667,30,644.33333333,20,663 C21.33333333,664.33333333,22.66666667,665.16666667,24,665.5 C25.33333333,665.83333333,29.66666667,667,37,669 C41,663.66666667,45.33333333,658.66666667,50,654 C53.33333333,650,56.83333333,645.83333333,60.5,641.5 C64.16666667,637.16666667,67.66666667,633.66666667,71,631 C77,625,84.5,621.5,93.5,620.5 C102.5,619.5,108.33333333,619,111,619 C127,619,150,624.33333333,180,635 C188,638.33333333,198.66666667,642.5,212,647.5 C225.33333333,652.5,240.83333333,657,258.5,661 C276.16666667,665,291.83333333,667.5,305.5,668.5 C319.16666667,669.5,329,670,335,670 C351.66666667,670,369.33333333,668.33333333,388,665 C405.33333333,661.66666667,421.16666667,657.83333333,435.5,653.5 C449.83333333,649.16666667,463.33333333,644.33333333,476,639 C500,627.66666667,521.33333333,612.66666667,540,594 C558.66666667,575.33333333,572.66666667,553.33333333,582,528 C585.33333333,518,588,508,590,498 C592,488,593,478,593,468 C593,465.33333333,593,462.66666667,593,460 C592.33333333,433.33333333,587.16666667,409.83333333,577.5,389.5 C567.83333333,369.16666667,557,352.16666667,545,338.5 C533,324.83333333,521.83333333,314.33333333,511.5,307 C501.16666667,299.66666667,495.33333333,295.66666667,494,295 C482.66666667,289.66666667,471,284.66666667,459,280 C447,275.33333333,434.33333333,270.33333333,421,265 C400.33333333,257.66666667,380.5,251,361.5,245 C342.5,239,324.33333333,234,307,230 C280.33333333,220.66666667,258.66666667,206.5,242,187.5 C225.33333333,168.5,216.33333333,147.33333333,215,124 C215,124,215,123,215,123 C215,121.66666667,215,120,215,120 C215,104.66666667,220,90.66666667,230,78 C240,65.33333333,253.33333333,57.33333333,270,54 C280.66666667,51.33333333,292.66666667,50,306,50 C319.33333333,50,333.66666667,52.33333333,349,57 C365,62.33333333,378.66666667,69.33333333,390,78 C401.33333333,86.66666667,410.66666667,95.16666667,418,103.5 C425.33333333,111.83333333,431,119.5,435,126.5 C439,133.5,441.66666667,138,443,140 C443,140,472,125,472,125Z "/>
	</g>
</svg>