<svg version="1.1" xmlns="http://www.w3.org/2000/svg" xmlns:xlink="http://www.w3.org/1999/xlink" viewBox="0,0,641,641">
	<g>
		<path d="M0,0M506,353 C521.33333333,338.33333333,533.33333333,323,542,307 C550.66666667,291,557,276,561,262 C565,248,567.66666667,235.83333333,569,225.5 C570.33333333,215.16666667,571,208,571,204 C571,200.66666667,570.83333333,194,570.5,184 C570.16666667,174,568.16666667,162,564.5,148 C560.83333333,134,555,118.83333333,547,102.5 C539,86.16666667,527.33333333,70.66666667,512,56 C498,42,483.5,31.33333333,468.5,24 C453.5,16.66666667,439.5,11.16666667,426.5,7.5 C413.5,3.83333333,402.16666667,1.66666667,392.5,1 C382.83333333,0.33333333,376.33333333,0,373,0 C373,0,20,0,20,0 C22.66666667,0.66666667,29.5,3.33333333,40.5,8 C51.5,12.66666667,60.66666667,21.66666667,68,35 C72.66666667,44.33333333,75,53,75,61 C75,61,75,597,75,597 C74.33333333,599.66666667,73.5,603.5,72.5,608.5 C71.5,613.5,68.66666667,618.66666667,64,624 C58.66666667,630,53.33333333,634.16666667,48,636.5 C42.66666667,638.83333333,39,640.33333333,37,641 C37,641,188,641,188,641 C188,641,185.16666667,640.5,181.5,639.5 C177.83333333,638.5,173.83333333,637,169.5,635 C165.16666667,633,160.83333333,630.16666667,156.5,626.5 C152.16666667,622.83333333,148.66666667,618,146,612 C142.66666667,605.33333333,141,598.66666667,141,592 C141,592,141,415,141,415 C141,415,249,415,249,415 C249,423,249.83333333,433.83333333,251.5,447.5 C253.16666667,461.16666667,256.66666667,476.33333333,262,493 C267.33333333,509.66666667,275.16666667,526.66666667,285.5,544 C295.83333333,561.33333333,309.66666667,577.33333333,327,592 C345,606.66666667,362.66666667,617.16666667,380,623.5 C397.33333333,629.83333333,411.66666667,634,423,636 C423,636,509,636,509,636 C495,632,481.33333333,627.66666667,468,623 C456.66666667,619.66666667,444.83333333,615.66666667,432.5,611 C420.16666667,606.33333333,409.66666667,601.33333333,401,596 C393,591.33333333,384.83333333,584.66666667,376.5,576 C368.16666667,567.33333333,360.5,556,353.5,542 C346.5,528,340.33333333,510.5,335,489.5 C329.66666667,468.5,326,443.66666667,324,415 C324,415,347,415,347,415 C350.33333333,415,357.5,414.66666667,368.5,414 C379.5,413.33333333,392.5,411.16666667,407.5,407.5 C422.5,403.83333333,438.66666667,397.83333333,456,389.5 C473.33333333,381.16666667,490,369,506,353Z M141,20 C141,20,356,20,356,20 C364,20.66666667,376.33333333,22.83333333,393,26.5 C409.66666667,30.16666667,426.33333333,39.33333333,443,54 C459,67.33333333,470.83333333,81.16666667,478.5,95.5 C486.16666667,109.83333333,491.5,123.33333333,494.5,136 C497.5,148.66666667,499,160,499,170 C499,171.33333333,498.83333333,173.16666667,498.5,175.5 C498.16666667,177.83333333,498,180.66666667,498,184 C498,190,498.33333333,195.33333333,499,200 C498.33333333,203.33333333,498,207.66666667,498,213 C498,215.66666667,498.16666667,218.16666667,498.5,220.5 C498.83333333,222.83333333,499,224.66666667,499,226 C499,234,498.16666667,243.33333333,496.5,254 C494.83333333,264.66666667,491.5,276.5,486.5,289.5 C481.5,302.5,473.66666667,316,463,330 C449.66666667,347.33333333,434.66666667,360.33333333,418,369 C401.33333333,377.66666667,385.83333333,383.83333333,371.5,387.5 C357.16666667,391.16666667,344.66666667,393,334,393 C334,393,141,393,141,393 C141,393,141,20,141,20Z "/>
	</g>
</svg>