<svg version="1.1" xmlns="http://www.w3.org/2000/svg" xmlns:xlink="http://www.w3.org/1999/xlink" viewBox="0,0,651,651">
	<g>
		<path d="M0,0M430,436 C430,413.33333333,429.83333333,388.33333333,429.5,361 C429.16666667,333.66666667,429,306.33333333,429,279 C429,279,429,134,429,134 C429,114.66666667,429.16666667,99.16666667,429.5,87.5 C429.83333333,75.83333333,430,70,430,70 C430,70,430.33333333,68.16666667,431,64.5 C431.66666667,60.83333333,432.5,56.5,433.5,51.5 C434.5,46.5,436,41,438,35 C440,29,442.66666667,23.66666667,446,19 C449.33333333,14.33333333,454.16666667,9.66666667,460.5,5 C466.83333333,0.33333333,476.33333333,-3.66666667,489,-7 C489,-7,301,-7,301,-7 C303.66666667,-6.33333333,310.83333333,-4.16666667,322.5,-0.5 C334.16666667,3.16666667,344.66666667,11.66666667,354,25 C359.33333333,33,362.5,40.5,363.5,47.5 C364.5,54.5,365,60,365,64 C365,64,365,451,365,451 C365,453,364.16666667,460,362.5,472 C360.83333333,484,357.5,497.5,352.5,512.5 C347.5,527.5,340.33333333,542.66666667,331,558 C321.66666667,573.33333333,308.66666667,585.33333333,292,594 C276.66666667,602.66666667,258.66666667,607,238,607 C236,607,228.66666667,606.66666667,216,606 C203.33333333,605.33333333,185.5,599.66666667,162.5,589 C139.5,578.33333333,117.5,562.5,96.5,541.5 C75.5,520.5,58,494.66666667,44,464 C43.33333333,462.66666667,42,462,42,462 C42,462,40,463,40,463 C38.66666667,464.33333333,37,466,35,468 C35,468,25,479,25,479 C23.66666667,480.33333333,22,482,20,484 C20,485.33333333,20,486,20,486 C20,486,87,644,87,644 C87,644,117,644,117,644 C117,644,96,571,96,571 C110,587,125.66666667,600.16666667,143,610.5 C160.33333333,620.83333333,177.33333333,627.83333333,194,631.5 C210.66666667,635.16666667,226.33333333,637,241,637 C246.33333333,637,255.5,636.5,268.5,635.5 C281.5,634.5,297.33333333,630,316,622 C334,614,350,603.33333333,364,590 C378,576.66666667,389.83333333,561.66666667,399.5,545 C409.16666667,528.33333333,416.66666667,510.66666667,422,492 C427.33333333,473.33333333,430,454.66666667,430,436Z "/>
	</g>
</svg>