<svg version="1.1" xmlns="http://www.w3.org/2000/svg" xmlns:xlink="http://www.w3.org/1999/xlink" viewBox="0,0,645,645">
	<g>
		<path d="M0,0M521,64 C507,48,491.83333333,35.66666667,475.5,27 C459.16666667,18.33333333,443.83333333,12,429.5,8 C415.16666667,4,402.66666667,1.66666667,392,1 C381.33333333,0.33333333,374.66666667,0,372,0 C372,0,20,0,20,0 C21.33333333,0,24,0.5,28,1.5 C32,2.5,36.83333333,4.16666667,42.5,6.5 C48.16666667,8.83333333,53.83333333,12.16666667,59.5,16.5 C65.16666667,20.83333333,70.33333333,26.66666667,75,34 C80.33333333,42,83.66666667,49.66666667,85,57 C86.33333333,64.33333333,87,70,87,74 C87,74,87,563,87,563 C85.66666667,575,83.83333333,585,81.5,593 C79.16666667,601,76.33333333,607.33333333,73,612 C67.66666667,620.66666667,61,627.83333333,53,633.5 C45,639.16666667,38.66666667,643,34,645 C34,645,217,645,217,645 C213.66666667,643.66666667,207.33333333,641,198,637 C188.66666667,633,179.66666667,625.33333333,171,614 C161.66666667,601.33333333,156.66666667,589.5,156,578.5 C155.33333333,567.5,155,560.33333333,155,557 C155,557,155,443,155,443 C155,421,154.66666667,397.66666667,154,373 C184.66666667,377,212.33333333,379,237,379 C243,379,254.83333333,378.66666667,272.5,378 C290.16666667,377.33333333,309,375.66666667,329,373 C348.33333333,369.66666667,367.16666667,366.5,385.5,363.5 C403.83333333,360.5,421,356.16666667,437,350.5 C453,344.83333333,468.16666667,337.83333333,482.5,329.5 C496.83333333,321.16666667,509.66666667,310,521,296 C530.33333333,284.66666667,537.83333333,273.16666667,543.5,261.5 C549.16666667,249.83333333,553.5,238.33333333,556.5,227 C559.5,215.66666667,561.66666667,205,563,195 C564.33333333,185,565,176.66666667,565,170 C564.33333333,161.33333333,561.5,146.83333333,556.5,126.5 C551.5,106.16666667,539.66666667,85.33333333,521,64Z M468,245 C459.33333333,266.33333333,445.16666667,285.33333333,425.5,302 C405.83333333,318.66666667,382.16666667,332,354.5,342 C326.83333333,352,302.33333333,357.66666667,281,359 C259.66666667,360.33333333,244.33333333,361,235,361 C209,361,182,358.66666667,154,354 C154,354,157,72,157,72 C157,72,172,27,172,27 C172,27,323,27,323,27 C325,27,326.66666667,27,328,27 C346.66666667,27,365.16666667,30.33333333,383.5,37 C401.83333333,43.66666667,418.33333333,54,433,68 C437.66666667,72.66666667,442.16666667,77.5,446.5,82.5 C450.83333333,87.5,454.66666667,93.33333333,458,100 C466,113.33333333,471.66666667,127,475,141 C478.33333333,155,480,168.33333333,480,181 C480,193.66666667,478.83333333,205.5,476.5,216.5 C474.16666667,227.5,471.33333333,237,468,245Z "/>
	</g>
</svg>