<svg version="1.1" xmlns="http://www.w3.org/2000/svg" xmlns:xlink="http://www.w3.org/1999/xlink" viewBox="0,0,701,701">
	<g>
		<path d="M0,0M443,79 C443,79,474,69,474,69 C474,69,407,-26,407,-26 C407,-26,373,6,373,6 C373,6,81,6,81,6 C63,6,44.33333333,3.33333333,25,-2 C25,-2,20,-3,20,-3 C20,-3,25,12,25,12 C32.33333333,34,36,55.66666667,36,77 C36,77,36,570,36,570 C36,596,30.66666667,622.33333333,20,649 C20,649,422,649,422,649 C430,649,437.33333333,651.5,444,656.5 C450.66666667,661.5,455.33333333,667.66666667,458,675 C458,675,555,572,555,572 C555,572,533,549,533,549 C533,549,477,595,477,595 C465,605,450.33333333,610,433,610 C433,610,125,610,125,610 C125,610,117,259,117,259 C117,259,370,259,370,259 C384.66666667,259,396,264.66666667,404,276 C404,276,440,325,440,325 C440,325,463,300,463,300 C463,300,401,195,401,195 C401,195,393,212,393,212 C386.33333333,226,375,233,359,233 C359,233,116,233,116,233 C116,233,116,34,116,34 C116,34,379,34,379,34 C395.66666667,34,409.33333333,40.33333333,420,53 C420,53,443,79,443,79Z "/>
	</g>
</svg>