<svg version="1.1" xmlns="http://www.w3.org/2000/svg" xmlns:xlink="http://www.w3.org/1999/xlink" viewBox="0,0,911,911">
	<g>
		<path d="M0,0M764,9 C774,10.33333333,782.5,14.16666667,789.5,20.5 C796.5,26.83333333,800.66666667,34.66666667,802,44 C802,45.33333333,802,47.66666667,802,51 C802,54.33333333,801.33333333,58,800,62 C772.66666667,124.66666667,745.33333333,186.66666667,718,248 C718,248,663,370,663,370 C635,431.33333333,607.33333333,493.33333333,580,556 C580,556,485,289,485,289 C499,251,512.83333333,212.83333333,526.5,174.5 C540.16666667,136.16666667,553.66666667,98,567,60 C568.33333333,55.33333333,570.66666667,49.5,574,42.5 C577.33333333,35.5,582.33333333,28.66666667,589,22 C598.33333333,12,607.5,5.83333333,616.5,3.5 C625.5,1.16666667,631.66666667,0,635,0 C635,0,514,0,514,0 C524,3.33333333,532.16666667,8.83333333,538.5,16.5 C544.83333333,24.16666667,548.66666667,33,550,43 C550,45,549.83333333,47.66666667,549.5,51 C549.16666667,54.33333333,548.33333333,58,547,62 C547,62,476,263,476,263 C476,263,404,62,404,62 C402.66666667,54.66666667,402,49.33333333,402,46 C402,44.66666667,402,43,402,43 C402.66666667,33,406.33333333,24.16666667,413,16.5 C419.66666667,8.83333333,427.66666667,3.33333333,437,0 C437,0,316,0,316,0 C319.33333333,0,325.66666667,1.16666667,335,3.5 C344.33333333,5.83333333,353.66666667,12,363,22 C369,28.66666667,373.66666667,35.5,377,42.5 C380.33333333,49.5,382.66666667,55.33333333,384,60 C398,98,411.83333333,136.16666667,425.5,174.5 C439.16666667,212.83333333,452.66666667,251,466,289 C466,289,372,556,372,556 C372,556,151,62,151,62 C149.66666667,57.33333333,149,53.33333333,149,50 C149,47.33333333,149.33333333,45.33333333,150,44 C151.33333333,34.66666667,155.33333333,26.83333333,162,20.5 C168.66666667,14.16666667,177,10.33333333,187,9 C187,9,20,9,20,9 C25.33333333,11.66666667,31,15.16666667,37,19.5 C43,23.83333333,49.33333333,29.66666667,56,37 C60,41.66666667,63.5,46.33333333,66.5,51 C69.5,55.66666667,72.33333333,60,75,64 C75,64,357,646,357,646 C377,590.66666667,396.83333333,535.66666667,416.5,481 C436.16666667,426.33333333,456,371,476,315 C495.33333333,371,515,426.33333333,535,481 C555,535.66666667,574.66666667,590.66666667,594,646 C594,646,877,64,877,64 C881,55.33333333,887.33333333,46.33333333,896,37 C902.66666667,29.66666667,909,23.83333333,915,19.5 C921,15.16666667,926.33333333,11.66666667,931,9 C931,9,764,9,764,9Z "/>
	</g>
</svg>