<svg version="1.1" xmlns="http://www.w3.org/2000/svg" xmlns:xlink="http://www.w3.org/1999/xlink" viewBox="0,0,642,642">
	<g>
		<path d="M0,0M506,450 C506,462,506,474.33333333,506,487 C506,487,507,560,507,560 C507,572,507,584.33333333,507,597 C507,598.33333333,506.83333333,601.83333333,506.5,607.5 C506.16666667,613.16666667,504,619,500,625 C494,632.33333333,487.5,636.83333333,480.5,638.5 C473.5,640.16666667,469.33333333,641,468,641 C468,641,570,641,570,641 C568.66666667,641,564,640,556,638 C548,636,541,630.33333333,535,621 C529.66666667,613.66666667,527,607,527,601 C527,601,527,32,527,32 C527,28.66666667,527.66666667,25,529,21 C533.66666667,11.66666667,540.33333333,5.66666667,549,3 C557.66666667,0.33333333,563,-1,563,-1 C563,-1,451,-1,451,-1 C453,-1,458.16666667,-0.5,466.5,0.5 C474.83333333,1.5,483,5.66666667,491,13 C496.33333333,17.66666667,500.16666667,23.16666667,502.5,29.5 C504.83333333,35.83333333,506,42.66666667,506,50 C506,50,506,364,506,364 C506,364,115,22,115,22 C97.66666667,6.66666667,77.33333333,-1,54,-1 C54,-1,20,-1,20,-1 C22.66666667,-0.33333333,29.5,1.66666667,40.5,5 C51.5,8.33333333,61.33333333,16.33333333,70,29 C74.66666667,36.33333333,77.5,43.33333333,78.5,50 C79.5,56.66666667,80,61.66666667,80,65 C80,65,80,567,80,567 C79.33333333,577.66666667,77.83333333,586.5,75.5,593.5 C73.16666667,600.5,70.33333333,606.33333333,67,611 C65,615,62,618.66666667,58,622 C54,625.33333333,50,628.33333333,46,631 C42,633.66666667,38.66666667,636,36,638 C33.33333333,640,32,641,32,641 C44.66666667,641,59.33333333,640.66666667,76,640 C90.66666667,640,108,639.83333333,128,639.5 C148,639.16666667,170.66666667,639,196,639 C194.66666667,639,191.16666667,638.5,185.5,637.5 C179.83333333,636.5,173.66666667,635,167,633 C160.33333333,631,153.5,628.5,146.5,625.5 C139.5,622.5,133.66666667,619,129,615 C123.66666667,609.66666667,119.83333333,603.66666667,117.5,597 C115.16666667,590.33333333,113.66666667,578.33333333,113,561 C113,561,109,98,109,98 C109,98,506,450,506,450Z "/>
	</g>
</svg>