<svg version="1.1" xmlns="http://www.w3.org/2000/svg" xmlns:xlink="http://www.w3.org/1999/xlink" viewBox="0,0,810,810">
	<g>
		<path d="M0,0M20,9 C26.66666667,11.66666667,34,15.33333333,42,20 C50,24.66666667,58.33333333,30.66666667,67,38 C72.33333333,42.66666667,77,47.16666667,81,51.5 C85,55.83333333,88.66666667,60,92,64 C92,64,464,654,464,654 C498.66666667,579.33333333,533.33333333,505,568,431 C568,431,637,284,637,284 C671.66666667,210,706.33333333,135.66666667,741,61 C742.33333333,56.33333333,745.16666667,50.5,749.5,43.5 C753.83333333,36.5,760.33333333,29.33333333,769,22 C781.66666667,12,793.83333333,5.83333333,805.5,3.5 C817.16666667,1.16666667,825.33333333,0,830,0 C830,0,671,0,671,0 C684.33333333,3.33333333,695.16666667,9,703.5,17 C711.83333333,25,716.66666667,33.66666667,718,43 C718,45,717.83333333,47.66666667,717.5,51 C717.16666667,54.33333333,716,58,714,62 C714,62,483,563,483,563 C483,563,193,62,193,62 C191,57.33333333,190,53.33333333,190,50 C190,48,190.33333333,46,191,44 C192.33333333,34.66666667,197.5,26.83333333,206.5,20.5 C215.5,14.16666667,226.66666667,10.33333333,240,9 C240,9,20,9,20,9Z "/>
	</g>
</svg>