<svg version="1.1" xmlns="http://www.w3.org/2000/svg" xmlns:xlink="http://www.w3.org/1999/xlink" viewBox="0,0,640,640">
	<g>
		<path d="M0,0M291,638 C293,638.66666667,295,639,297,639 C297,639,300,639,300,639 C302,639,304,639.33333333,306,640 C306,640,322,640,322,640 C354,640,383.66666667,633.5,411,620.5 C438.33333333,607.5,462.33333333,590.16666667,483,568.5 C503.66666667,546.83333333,519.66666667,521.83333333,531,493.5 C542.33333333,465.16666667,548,435,548,403 C548,368.33333333,547.83333333,331.83333333,547.5,293.5 C547.16666667,255.16666667,547,220,547,188 C547,156,547.16666667,129.5,547.5,108.5 C547.83333333,87.5,549,77,549,77 C549,77,549.33333333,75.16666667,550,71.5 C550.66666667,67.83333333,551.5,63.5,552.5,58.5 C553.5,53.5,555,48,557,42 C559,36,561.66666667,30.66666667,565,26 C568.33333333,21.33333333,573.16666667,16.66666667,579.5,12 C585.83333333,7.33333333,595.33333333,3.33333333,608,0 C608,0,457,0,457,0 C459.66666667,0,467,2,479,6 C491,10,501.33333333,18.66666667,510,32 C515.33333333,40,518.5,47.5,519.5,54.5 C520.5,61.5,521,67,521,71 C521,80.33333333,521.16666667,95.33333333,521.5,116 C521.83333333,136.66666667,522,162,522,192 C522,192,522,424,522,424 C522,444,519,463.33333333,513,482 C507,500.66666667,498.66666667,518,488,534 C477.33333333,550,464.33333333,564.16666667,449,576.5 C433.66666667,588.83333333,416.66666667,598.33333333,398,605 C378,613,357.33333333,617,336,617 C315.33333333,617,294.66666667,614.66666667,274,610 C253.33333333,605.33333333,234.33333333,597.33333333,217,586 C199.66666667,574.66666667,185,559.33333333,173,540 C161,520.66666667,153.33333333,496.33333333,150,467 C150,445.66666667,149.83333333,421.16666667,149.5,393.5 C149.16666667,365.83333333,149,337.66666667,149,309 C149,309,149,149,149,149 C149,127.66666667,149.16666667,110.33333333,149.5,97 C149.83333333,83.66666667,150,77,150,77 C150,77,150.33333333,75.16666667,151,71.5 C151.66666667,67.83333333,152.5,63.5,153.5,58.5 C154.5,53.5,156,48,158,42 C160,36,162.66666667,30.66666667,166,26 C169.33333333,21.33333333,174.16666667,16.66666667,180.5,12 C186.83333333,7.33333333,196.66666667,3.33333333,210,0 C210,0,20,0,20,0 C22.66666667,0,29.83333333,2,41.5,6 C53.16666667,10,63.66666667,18.66666667,73,32 C78.33333333,40,81.5,47.5,82.5,54.5 C83.5,61.5,84,67,84,71 C84,71,84,399,84,399 C84,429,89.16666667,457.66666667,99.5,485 C109.83333333,512.33333333,124.33333333,536.66666667,143,558 C161.66666667,579.33333333,183.5,597.16666667,208.5,611.5 C233.5,625.83333333,261,634.66666667,291,638Z "/>
	</g>
</svg>