<svg version="1.1" xmlns="http://www.w3.org/2000/svg" xmlns:xlink="http://www.w3.org/1999/xlink" viewBox="0,0,665,665">
	<g>
		<path d="M0,0M582,413 C582,413,363,413,363,413 C363,413,363,510,363,510 C363,510,394,466,394,466 C394,466,540,466,540,466 C540,466,540,581,540,581 C517.33333333,595.66666667,492.5,607.66666667,465.5,617 C438.5,626.33333333,411.66666667,631,385,631 C376.33333333,631,367.66666667,630.66666667,359,630 C345.66666667,628.66666667,333.16666667,626.5,321.5,623.5 C309.83333333,620.5,298.66666667,617.33333333,288,614 C282,611.33333333,272.5,606.83333333,259.5,600.5 C246.5,594.16666667,232,585.33333333,216,574 C200,562.66666667,183.83333333,548.16666667,167.5,530.5 C151.16666667,512.83333333,136.66666667,491.66666667,124,467 C107.33333333,435,97.66666667,407,95,383 C92.33333333,359,91,339.66666667,91,325 C91,312.33333333,92,297,94,279 C96,261,99.83333333,243.66666667,105.5,227 C111.16666667,210.33333333,115,200,117,196 C119,192,123.83333333,183.83333333,131.5,171.5 C139.16666667,159.16666667,150,145.83333333,164,131.5 C178,117.16666667,195,103.16666667,215,89.5 C235,75.83333333,258.66666667,65.66666667,286,59 C307.33333333,53.66666667,328.66666667,51,350,51 C354,51,363.5,51.33333333,378.5,52 C393.5,52.66666667,413.16666667,57.33333333,437.5,66 C461.83333333,74.66666667,485,86.66666667,507,102 C529,117.33333333,549,135.66666667,567,157 C567,157,592,143,592,143 C592,143,528,0,528,0 C528,0,502,14,502,14 C502,14,510,50,510,50 C508,49.33333333,500.5,47,487.5,43 C474.5,39,458,35,438,31 C418,27,399.5,24.5,382.5,23.5 C365.5,22.5,353,22,345,22 C327,22,306.33333333,23.5,283,26.5 C259.66666667,29.5,234,36.5,206,47.5 C178,58.5,151.33333333,74.66666667,126,96 C102.66666667,116,84.16666667,137.16666667,70.5,159.5 C56.83333333,181.83333333,46.33333333,202.33333333,39,221 C37,225.66666667,33.83333333,236.33333333,29.5,253 C25.16666667,269.66666667,22.66666667,285.5,22,300.5 C21.33333333,315.5,21,325.66666667,21,331 C21,351,23,374.16666667,27,400.5 C31,426.83333333,41.33333333,455.66666667,58,487 C72,513.66666667,88.16666667,536.5,106.5,555.5 C124.83333333,574.5,142.83333333,590,160.5,602 C178.16666667,614,194,623.33333333,208,630 C222,636.66666667,232,641,238,643 C246,645.66666667,255.83333333,648.66666667,267.5,652 C279.16666667,655.33333333,292.33333333,658.16666667,307,660.5 C321.66666667,662.83333333,334.16666667,664.16666667,344.5,664.5 C354.83333333,664.83333333,361.66666667,665,365,665 C379,665,393.33333333,664,408,662 C446,657.33333333,479.33333333,648.16666667,508,634.5 C536.66666667,620.83333333,560.66666667,607,580,593 C580,593,582,413,582,413Z "/>
	</g>
</svg>