<svg version="1.1" xmlns="http://www.w3.org/2000/svg" width="634" height="645" viewBox="0,0,634,645">
	<g>
		<path d="M0,0M607,20 C615.66666667,14.66666667,623.83333333,10.16666667,631.5,6.5 C639.16666667,2.83333333,646.66666667,-0.66666667,654,-4 C654,-4,443,-4,443,-4 C445,-2.66666667,448.5,-0.33333333,453.5,3 C458.5,6.33333333,462.66666667,11.66666667,466,19 C467.33333333,21.66666667,468,24.66666667,468,28 C468,30,467.33333333,33,466,37 C464.66666667,41,462,44.66666667,458,48 C458,48,145,280,145,280 C145,253.33333333,144.83333333,227.5,144.5,202.5 C144.16666667,177.5,144,155.5,144,136.5 C144,117.5,144.16666667,102.33333333,144.5,91 C144.83333333,79.66666667,146,74,146,74 C146,74,146.33333333,72.16666667,147,68.5 C147.66666667,64.83333333,148.5,60.5,149.5,55.5 C150.5,50.5,152,44.83333333,154,38.5 C156,32.16666667,158.33333333,26.66666667,161,22 C164.33333333,17.33333333,169,12.66666667,175,8 C181,3.33333333,190.33333333,-0.66666667,203,-4 C203,-4,20,-4,20,-4 C22.66666667,-3.33333333,29.83333333,-1.16666667,41.5,2.5 C53.16666667,6.16666667,63.33333333,15,72,29 C76.66666667,36.33333333,79.5,43.66666667,80.5,51 C81.5,58.33333333,82,64,82,68 C82,68,82,557,82,557 C81.33333333,568.33333333,79.83333333,578,77.5,586 C75.16666667,594,72.33333333,600.33333333,69,605 C64.33333333,613.66666667,59.16666667,621,53.5,627 C47.83333333,633,45,636.66666667,45,638 C45,638,45,638,45,638 C55,636.66666667,67.66666667,635.66666667,83,635 C91.66666667,634.33333333,102,634,114,634 C120,634,129.5,634.16666667,142.5,634.5 C155.5,634.83333333,175.66666667,635.66666667,203,637 C199.66666667,635.66666667,193.66666667,633.16666667,185,629.5 C176.33333333,625.83333333,168.33333333,618.33333333,161,607 C152.33333333,595,147.66666667,584.66666667,147,576 C146.33333333,567.33333333,146,561,146,557 C146,554.33333333,146,552.33333333,146,551 C146,534.33333333,146,516.33333333,146,497 C145.33333333,479.66666667,145,460.16666667,145,438.5 C145,416.83333333,145,393.66666667,145,369 C145,369,232,303,232,303 C232,303,427,582,427,582 C429,584.66666667,430,588,430,592 C430,593.33333333,429.66666667,596,429,600 C428.33333333,604,425.66666667,609,421,615 C421,615,420,615,420,615 C412.66666667,623.66666667,405.83333333,629.83333333,399.5,633.5 C393.16666667,637.16666667,388.66666667,639.66666667,386,641 C386,641,597,641,597,641 C591.66666667,637.66666667,585.83333333,633.83333333,579.5,629.5 C573.16666667,625.16666667,567.33333333,620,562,614 C556.66666667,608,551.83333333,602.83333333,547.5,598.5 C543.16666667,594.16666667,537.66666667,586.66666667,531,576 C491,520.66666667,452.5,466.33333333,415.5,413 C378.5,359.66666667,340.66666667,305.66666667,302,251 C335.33333333,225.66666667,368.33333333,200.33333333,401,175 C401,175,468,126,468,126 C501.33333333,100.66666667,534.33333333,75.33333333,567,50 C572.33333333,45.33333333,578.33333333,40.5,585,35.5 C591.66666667,30.5,599,25.33333333,607,20Z "/>
	</g>
</svg>
