<svg version="1.1" xmlns="http://www.w3.org/2000/svg" xmlns:xlink="http://www.w3.org/1999/xlink" viewBox="0,0,677,677">
	<g>
		<path d="M0,0M157,281 C157,281,409,281,409,281 C423.66666667,281,435,286.66666667,443,298 C443,298,479,347,479,347 C479,347,502,323,502,323 C502,323,440,218,440,218 C440,218,432,234,432,234 C425.33333333,248.66666667,414,256,398,256 C398,256,156,256,156,256 C156,256,156,57,156,57 C156,57,418,57,418,57 C434.66666667,57,448.33333333,63,459,75 C459,75,482,101,482,101 C482,101,513,92,513,92 C513,92,446,-3,446,-3 C446,-3,413,29,413,29 C413,29,121,29,121,29 C103,29,84.33333333,26.33333333,65,21 C65,21,60,20,60,20 C60,20,65,35,65,35 C72.33333333,57,76,78.66666667,76,100 C76,100,76,505,76,505 C76,510.33333333,76,516,76,522 C76,522,75,557,75,557 C75,563,75,568.66666667,75,574 C75,584.66666667,75,591.66666667,75,595 C73.66666667,606.33333333,71.16666667,615.66666667,67.5,623 C63.83333333,630.33333333,60,636.66666667,56,642 C49.33333333,650,41.83333333,657,33.5,663 C25.16666667,669,21,672.66666667,21,674 C21,674,21,674,21,674 C35.66666667,672.66666667,54,672,76,672 C94.66666667,671.33333333,118.16666667,671,146.5,671 C174.83333333,671,208.33333333,671.66666667,247,673 C242.33333333,671.66666667,233.83333333,669.16666667,221.5,665.5 C209.16666667,661.83333333,197.33333333,654.33333333,186,643 C174,631.66666667,167.5,621.5,166.5,612.5 C165.5,603.5,165,597.33333333,165,594 C165,592,165,590.33333333,165,589 C165,589,165,510,165,510 C165,498.66666667,164.66666667,490,164,484 C164,484,157,281,157,281Z "/>
	</g>
</svg>