<svg version="1.1" xmlns="http://www.w3.org/2000/svg" xmlns:xlink="http://www.w3.org/1999/xlink" viewBox="0,0,644,644">
	<g>
		<path d="M0,0M620,608 C610.66666667,596,605.66666667,584.5,605,573.5 C604.33333333,562.5,604,555.33333333,604,552 C603.33333333,462.66666667,603,383,603,313 C603,313,603,148,603,148 C603,126,603.16666667,108.16666667,603.5,94.5 C603.83333333,80.83333333,604,74,604,74 C604,74,604.33333333,72.16666667,605,68.5 C605.66666667,64.83333333,606.5,60.33333333,607.5,55 C608.5,49.66666667,610,44,612,38 C614,32,616.66666667,26.66666667,620,22 C623.33333333,17.33333333,628.16666667,12.66666667,634.5,8 C640.83333333,3.33333333,650.66666667,-0.66666667,664,-4 C664,-4,472,-4,472,-4 C474.66666667,-4,482,-2,494,2 C506,6,516.66666667,14.66666667,526,28 C531.33333333,36,534.5,43.66666667,535.5,51 C536.5,58.33333333,537,63.66666667,537,67 C537,67,537,210,537,210 C537,210,151,210,151,210 C151,171.33333333,151,139,151,113 C151,87,152,74,152,74 C152,74,152.33333333,72.16666667,153,68.5 C153.66666667,64.83333333,154.5,60.33333333,155.5,55 C156.5,49.66666667,158,44,160,38 C162,32,164.66666667,26.66666667,168,22 C171.33333333,17.33333333,176.16666667,12.66666667,182.5,8 C188.83333333,3.33333333,198.66666667,-0.66666667,212,-4 C212,-4,20,-4,20,-4 C22.66666667,-4,30,-2,42,2 C54,6,64.66666667,14.66666667,74,28 C79.33333333,36,82.66666667,43.66666667,84,51 C85.33333333,58.33333333,86,63.66666667,86,67 C86,67,86,558,86,558 C84.66666667,569.33333333,82.66666667,579,80,587 C77.33333333,595,74.66666667,601.33333333,72,606 C66.66666667,614.66666667,61,622,55,628 C49,634,46,637.66666667,46,639 C46,639,46,639,46,639 C56.66666667,637.66666667,70,636.66666667,86,636 C95.33333333,635.33333333,106,635,118,635 C124.66666667,635,134.83333333,635.16666667,148.5,635.5 C162.16666667,635.83333333,183.33333333,636.66666667,212,638 C208.66666667,636.66666667,202.5,634.16666667,193.5,630.5 C184.5,626.83333333,176,619.33333333,168,608 C158.66666667,596,153.66666667,584.5,153,573.5 C152.33333333,562.5,152,555.33333333,152,552 C152,519.33333333,152,485.66666667,152,451 C151.33333333,421,151,388.16666667,151,352.5 C151,316.83333333,151,282,151,248 C151,248,537,248,537,248 C537,248,537,558,537,558 C536.33333333,569.33333333,534.66666667,579,532,587 C529.33333333,595,526.66666667,601.33333333,524,606 C518.66666667,614.66666667,513,622,507,628 C501,634,498,637.66666667,498,639 C498,639,498,639,498,639 C508.66666667,637.66666667,522,636.66666667,538,636 C547.33333333,635.33333333,558,635,570,635 C576.66666667,635,586.83333333,635.16666667,600.5,635.5 C614.16666667,635.83333333,635.33333333,636.66666667,664,638 C660.66666667,636.66666667,654.5,634.16666667,645.5,630.5 C636.5,626.83333333,628,619.33333333,620,608Z "/>
	</g>
</svg>