<svg version="1.1" xmlns="http://www.w3.org/2000/svg" xmlns:xlink="http://www.w3.org/1999/xlink" viewBox="0,0,663,663">
	<g>
		<path d="M0,0M499,0 C498.33333333,1.33333333,497.16666667,3.66666667,495.5,7 C493.83333333,10.33333333,491,13.66666667,487,17 C485,19,482.83333333,20.33333333,480.5,21 C478.16666667,21.66666667,476.33333333,22.33333333,475,23 C475,23,116,23,116,23 C112,23,107,22,101,20 C95.66666667,17.33333333,91.5,14.5,88.5,11.5 C85.5,8.5,83.33333333,6.33333333,82,5 C70.66666667,27,60.66666667,46.66666667,52,64 C44.66666667,78.66666667,37.66666667,92.16666667,31,104.5 C24.33333333,116.83333333,20,124,20,124 C20,124,53,133,53,133 C55,125.66666667,58.33333333,116.83333333,63,106.5 C67.66666667,96.16666667,74.66666667,86,84,76 C88.66666667,70,94,65.33333333,100,62 C100,62,250,62,250,62 C253.33333333,68.66666667,255.33333333,74.83333333,256,80.5 C256.66666667,86.16666667,257,90.66666667,257,94 C257,94,257,584,257,584 C256.33333333,595.33333333,254.66666667,604.83333333,252,612.5 C249.33333333,620.16666667,246.66666667,626.33333333,244,631 C238.66666667,639.66666667,232,646.66666667,224,652 C216,657.33333333,210,661,206,663 C206,663,384,663,384,663 C380.66666667,661.66666667,374.33333333,659.16666667,365,655.5 C355.66666667,651.83333333,347,644.33333333,339,633 C329.66666667,621,324.83333333,610.83333333,324.5,602.5 C324.16666667,594.16666667,324,588.33333333,324,585 C324,581,324,578.33333333,324,577 C323.33333333,488.33333333,323,409,323,339 C323,339,323,175,323,175 C323,153,323.16666667,135.16666667,323.5,121.5 C323.83333333,107.83333333,324,101,324,101 C324,101,325.5,96.83333333,326.5,88.5 C327.5,80.16666667,329.66666667,71.33333333,333,62 C333,62,490,62,490,62 C498.66666667,67.33333333,506.66666667,73.66666667,514,81 C524.66666667,90.33333333,533.83333333,99.33333333,541.5,108 C549.16666667,116.66666667,555.66666667,125,561,133 C561,133,586,109,586,109 C571.33333333,90.33333333,556.83333333,72,542.5,54 C528.16666667,36,513.66666667,18,499,0Z "/>
	</g>
</svg>