<svg version="1.1" xmlns="http://www.w3.org/2000/svg" xmlns:xlink="http://www.w3.org/1999/xlink" viewBox="0,0,663,663">
	<g>
		<path d="M0,0M510,50 C508,49.33333333,500.5,47,487.5,43 C474.5,39,458,35,438,31 C418,27,399.5,24.5,382.5,23.5 C365.5,22.5,353,22,345,22 C327,22,306.33333333,23.5,283,26.5 C259.66666667,29.5,234.16666667,36.5,206.5,47.5 C178.83333333,58.5,152.33333333,74.66666667,127,96 C103.66666667,115.33333333,85,136.16666667,71,158.5 C57,180.83333333,46.33333333,201.33333333,39,220 C37,224.66666667,33.83333333,235.33333333,29.5,252 C25.16666667,268.66666667,22.66666667,284.33333333,22,299 C21.33333333,313.66666667,21,323.66666667,21,329 C21,349,23.16666667,372.33333333,27.5,399 C31.83333333,425.66666667,42.33333333,454.66666667,59,486 C73,512.66666667,89.16666667,535.33333333,107.5,554 C125.83333333,572.66666667,143.66666667,588,161,600 C178.33333333,612,194.16666667,621.33333333,208.5,628 C222.83333333,634.66666667,233,639,239,641 C247,643.66666667,256.83333333,646.66666667,268.5,650 C280.16666667,653.33333333,293.16666667,656.16666667,307.5,658.5 C321.83333333,660.83333333,334.16666667,662.16666667,344.5,662.5 C354.83333333,662.83333333,361.66666667,663,365,663 C379,663,393.33333333,662,408,660 C437.33333333,656.66666667,464,650.16666667,488,640.5 C512,630.83333333,533.16666667,620.5,551.5,609.5 C569.83333333,598.5,585.16666667,587.66666667,597.5,577 C609.83333333,566.33333333,619,558,625,552 C621.66666667,547.33333333,618.83333333,542.83333333,616.5,538.5 C614.16666667,534.16666667,611.33333333,530,608,526 C602,532,591.5,541.16666667,576.5,553.5 C561.5,565.83333333,543.33333333,578,522,590 C500.66666667,602,477.83333333,611.5,453.5,618.5 C429.16666667,625.5,405.66666667,629,383,629 C375,629,367,628.66666667,359,628 C345.66666667,626.66666667,333.16666667,624.66666667,321.5,622 C309.83333333,619.33333333,298.66666667,616,288,612 C282,609.33333333,272.5,604.83333333,259.5,598.5 C246.5,592.16666667,232,583.33333333,216,572 C200,560.66666667,183.83333333,546.16666667,167.5,528.5 C151.16666667,510.83333333,136.66666667,489.66666667,124,465 C107.33333333,433,97.66666667,405.33333333,95,382 C92.33333333,358.66666667,91,339.66666667,91,325 C91,312.33333333,92.16666667,296.83333333,94.5,278.5 C96.83333333,260.16666667,100.83333333,242.66666667,106.5,226 C112.16666667,209.33333333,116,199,118,195 C120,191,124.83333333,183,132.5,171 C140.16666667,159,150.83333333,145.83333333,164.5,131.5 C178.16666667,117.16666667,195,103.16666667,215,89.5 C235,75.83333333,258.66666667,65.33333333,286,58 C306.66666667,53.33333333,327.33333333,51,348,51 C352.66666667,51,362.5,51.33333333,377.5,52 C392.5,52.66666667,412.16666667,57.16666667,436.5,65.5 C460.83333333,73.83333333,484,85.66666667,506,101 C528,116.33333333,548,134.66666667,566,156 C566,156,592,142,592,142 C592,142,527,0,527,0 C527,0,501,14,501,14 C501,14,510,50,510,50Z "/>
	</g>
</svg>